<?xml version="1.0" encoding="utf-8"?>
<!-- Generator: Adobe Illustrator 18.0.0, SVG Export Plug-In . SVG Version: 6.00 Build 0)  -->
<!DOCTYPE svg PUBLIC "-//W3C//DTD SVG 1.1//EN" "http://www.w3.org/Graphics/SVG/1.1/DTD/svg11.dtd">
<svg version="1.1" id="Layer_1" xmlns="http://www.w3.org/2000/svg" xmlns:xlink="http://www.w3.org/1999/xlink" x="0px" y="0px"
	 viewBox="0 0 500 500" enable-background="new 0 0 500 500" xml:space="preserve">
<g id="_x32_" display="none">
	<path display="inline" fill="#414042" d="M425.7,194.2c-0.2-20.6-0.4-34.2-6.6-50.6c-3.7-10-11.6-30.8-31.4-41.6
		c-8-4.4-17.1-6.6-27.7-6.6c-4.2,0-8.1,0.3-11.2,0.6l-165.4,14.2c-17.6,1.5-37.6,3.2-54.1,13.1c-18.1,10.8-26.9,31.4-35.4,49.8
		c-5.5,11.9-11.7,24.8-14.6,37.6c-2.8,12.5-1.9,25.4-2.9,38.1c-0.4,4.9-0.8,9.7-1.1,14.6c-0.4,7.7-0.5,17.2,1,27
		c0,0.2-0.1,0.4-0.1,0.6c-0.1,0.7,0.1,1.2,0.4,1.6c1.3,7.2,3.5,14.5,7.2,21.3c0.4,0.8,0.9,1.6,1.4,2.5c0.6,0.9,1.1,1.8,1.8,2.7
		c2.3,3.3,5.1,6.3,8.4,8.9c1.4,1.1,2.7,2.2,4.2,3.1c2.6,1.7,5.3,3.2,8.1,4.3c1.5,0.6,3,1.2,4.6,1.6c1.9,0.6,3.8,1,5.8,1.1
		c1.3,0.2,2.6,0.2,3.9,0.2c0.4,0,0.8,0,1.2-0.1c1.3,0,2.6-0.1,3.9-0.4c-1.8,4.9-3.4,9.9-5,14.9c-1.1,3.5-2.2,7-3.2,10.5
		c-0.3,0.9-0.5,1.8-0.8,2.7c-0.9,2.8-2.2,6.2-2.9,9.4c-0.7,2.8-0.9,5.4-0.1,7.3c0.8,2,2.9,3.3,7,3c0.4,0,0.9-0.1,1.3-0.1
		c1.6-0.2,3.1-0.5,4.7-0.8c5.4-1.2,10.6-3.2,15.2-6.1c2.8-1.7,4.7-4.4,7.1-6.6c2.5-2.3,5.1-3.6,8-5.4c6.9-4.4,12.9-10,19.2-15.2
		c6.2-5.2,13-11.5,21.1-13.4c3.4-0.8,6.8-1.6,10.1-2.3c2-0.4,4-0.9,6-1.3c5.6-1.2,11.1-2.3,16.7-3.3c10.7-2.1,21.4-3.5,32.3-4.3
		c14.3-1.1,28.8-1.1,43.1-1.7c7.9-0.3,15.9-0.4,23.8-1.5c4.7-0.6,9.4-0.6,14-1.8c10.6-2.7,21.8-3.9,31.9-8.2
		c9.3-3.9,17.3-9.7,23.5-17.5c12.3-15.4,18-35.8,20.4-55c0.8-6.5,4-12,4.8-18.6C426.3,213.1,425.9,203.6,425.7,194.2z M82.6,227.7
		c0.7-9.6,2.1-19.1,5.7-28.8c6.1-16.3,13.5-32.1,22.1-47.3c-0.2,0.9-0.3,1.9-0.5,3l-0.3,2.1c-1.4,9.3-3,19.1-3.9,29
		c-4.5,9.2-11.1,17.1-15.8,26.2C87.2,217,84.7,222.3,82.6,227.7L82.6,227.7z M79.9,274.2C79.9,274.2,79.9,274.2,79.9,274.2
		c0-3.8,0.1-7.3,0.2-10.6c0.2-4.8,0.7-9.6,1.1-14.4c0.1-1.6,0.2-3.1,0.3-4.7v0c0.4-0.3,0.8-0.7,1-1.4C85.4,232,90,221,95.8,211
		c2.8-4.8,6-9.4,9-14c0,0,0,0,0,0.1c-0.3,7.9-0.2,15.8,0.6,23.7v0c-0.1,0.2-0.2,0.3-0.3,0.5c-1.4,5.7-5.5,9.9-8.6,14.6
		c-3.7,5.7-6.5,12-9.2,18.3C84.6,260.9,82,267.4,79.9,274.2C79.9,274.2,79.9,274.2,79.9,274.2z M85.3,305.9
		c-2.1-5.1-3.4-10.3-4.2-15.5c1.9-14.9,8.1-29.8,14.7-43.1c2.9-5.9,7.7-11.4,11-17.3l0,0c0,0.1,0,0.1,0,0.1
		c0.9,4.7,2.1,9.2,3.7,13.8c0.6,1.8,1.3,3.5,2,5.2C103.3,268,90.4,285.4,85.3,305.9z M96.8,322.9c-3-2.7-5.5-5.8-7.5-9.1
		c-0.2-0.3-0.4-0.7-0.6-1c3.3-21.4,16.7-39.3,26.5-58.4c2.4,4.4,5.1,8.5,8.2,12.3c-4.8,11.5-12.3,21.6-17.4,32.9
		C102.5,307.3,99.3,314.9,96.8,322.9z M109.2,330.8c-2.9-1.2-5.7-2.7-8.2-4.6c6-20,17.8-36.5,26.1-55.4c3,3.1,6.1,5.9,9.4,8.3
		c-4.7,9.3-12.2,17.1-16.6,26.7C116.3,313.7,112.1,322.2,109.2,330.8z M120.5,333.5c-2.3-0.1-4.5-0.5-6.7-1.1
		c2.9-8.5,7.2-17.2,10.6-24.7c4.3-9.4,11.5-16.9,16.1-25.9c3.5,2.2,7.2,3.9,10.9,5.3c-7,7.2-11.4,16.1-16.5,24.6
		C130.5,319,124.7,326,120.5,333.5z M126.2,333.2c3.9-6.6,9.1-12.7,12.9-19c5-8.5,9.3-17.2,16.3-24.2c0.4-0.4,0.6-0.9,0.6-1.4
		c4.2,1.2,8.6,1.8,12.9,1.8c0.7,0,1.3-0.1,2-0.1c-15.6,12.7-29.9,26.9-42.4,42.6C127.7,333,126.9,333.1,126.2,333.2z M173.3,294.4
		l-3.6,9.3c-10,9-19.9,17.9-29.2,27.6c-3.7,3.9-7.1,8-10.5,12.2c2.4-7.5,5.5-15,11.5-19.6c5.5-4.2,10.1-10,15.1-14.9
		c2.6-2.6,5.4-5.1,8.2-7.5C166.7,299.9,172.4,296.7,173.3,294.4z M126.4,355.7c0-0.2,0.1-0.2,0.1-0.4c5.9-6.8,11.3-14,17.4-20.4
		c7.1-7.4,14.5-14.3,22-21.2l-5.1,13.4c-9.5,6.9-18.3,13.8-26,23.1c-3.7,4.5-7.3,9.2-10.9,13.7C124.7,361.1,125.5,358.4,126.4,355.7
		z M125.3,380.5c-2.1,0.3-4.2,0.4-6.3,0.3c0.4-1.3,0.8-2.7,1.2-4.1c0-0.1,0-0.1,0-0.1c4.4-5.8,9.1-11.3,13.6-17
		c7.6-9.5,15.1-16.9,24-24l-7.2,18.9c-5.4,4.9-10.5,10.2-15.5,15.6c-3.2,3.5-6.6,6.7-9.4,10.3C125.5,380.5,125.4,380.5,125.3,380.5z
		 M144.4,370.5c-0.2,0.5-0.2,1.1,0,1.6c-3,2.4-6.6,4.8-11,6.5c2.8-3.1,5.9-5.9,8.5-8.8c1.5-1.6,3.1-3.3,4.7-4.9L144.4,370.5z
		 M211.6,330.7c-4.3,1.1-8.6,2.3-12.9,3.6c1.4-1.4,2.9-2.7,4.3-4.1c4.5-4.6,8.7-10.3,12.8-15.9c4.7-6.5,9.6-13.2,15.1-18.2
		c1.7-1.5,3.4-2.8,5.1-4c-4.2,5.4-8.5,10.9-12.1,16.8C219.6,316.1,216.5,324,211.6,330.7z M230,325.7c-0.2,0.3-0.3,0.5-0.3,0.8h0
		c-3.8,0.7-7.6,1.5-11.3,2.5c3-5,5.5-10.2,8.4-15.2c5.1-9.1,12-17,18.3-25.3c0.1-0.1,0.2-0.1,0.2-0.2c3.1-0.9,6.3-1.3,9.6-1.6
		c0,0,0,0,0.1,0C245.9,299.2,238.5,312.8,230,325.7z M236,325.4C236,325.4,236,325.4,236,325.4c8.2-12.9,15.5-26.4,24.7-38.8
		c0.1-0.2,0.1-0.3,0.2-0.5h0h0c2.9-0.2,5.8-0.2,8.7-0.2h2c-2.9,5.5-5.4,11.3-8.3,16.8c-3.5,6.7-7.1,13.2-10.1,20.1
		C247.6,323.5,241.7,324.3,236,325.4z M275.2,321.3c-3.8,0.2-7.7,0.3-11.7,0.6c-1.5,0.1-3.1,0.2-4.6,0.4c3.1-6.8,6.8-13.2,10.2-19.9
		c2.8-5.6,5.2-11.2,8.3-16.6c4.6-0.1,9.3-0.3,14-0.6h0c0,0,0,0,0.1,0c-3.1,4.2-4.3,9.1-6,14C282.8,306.9,278.5,313.9,275.2,321.3
		C275.2,321.3,275.2,321.3,275.2,321.3z M289.1,321c-2.8,0-5.7,0.1-8.6,0.2c2.6-5.8,5.9-11.3,8.2-17.2c2.3-5.6,3-12.2,7.1-16.9
		c0.6-0.7,0.7-1.5,0.5-2.2h0c4.7-0.3,9.3-0.8,14-1.2c-3.2,6.3-6.4,12.6-9.1,19.2c-2.5,6.1-4.2,12.4-7.5,18
		C292.1,320.9,290.6,320.9,289.1,321z M299.3,320.8c2.2-4.3,3.6-8.9,5.3-13.5c3.1-8.3,7.3-16.2,11.3-24.1c4.8-0.5,9.7-1,14.5-1.6
		c-0.1,0.1-0.1,0.2-0.2,0.3c-5,12.8-9.9,25.5-15.1,38.2C309.7,320.4,304.4,320.6,299.3,320.8z M339.6,317.1c0,0-0.1,0-0.1,0
		c-6.9,1.1-13.1,1.8-18.9,2.4c4.9-12.1,9.6-24.3,14.4-36.5c0.3-0.9,0.1-1.6-0.4-2.1c6.5-0.8,13-1.7,19.4-2.6
		C350,291.5,345.8,304.7,339.6,317.1z M345.4,316.1c5.8-12.4,9.9-25.5,13.9-38.5c1.8-0.3,3.7-0.5,5.5-0.8c3.2-0.5,6.8-1.4,10.5-2.6
		c-3.6,12.4-3.2,26.3-9.7,37.5C358.9,313.4,352.2,314.8,345.4,316.1z M396.2,281.8c-1.4,6.3-3.6,12.4-6.6,18.1
		c-0.1,0.2-0.1,0.3-0.1,0.5c-1.8,1.5-3.7,3-5.9,4.3c-3.6,2.2-7.5,3.9-11.6,5.3c4.9-11.6,4.6-25.2,8.8-37.1c0.1-0.2,0.1-0.4,0.1-0.6
		c5.5-2.2,11.3-5.1,16.7-8.8c-0.3,2.7,0.3,6.3,0.3,7.8C397.8,274.6,396.9,278.4,396.2,281.8z M398.8,290.2c2.1-2.9,2.5-9.1,3-12.5
		c0.5-3.6,0.9-7,1.8-10.5c0.3-1.5-0.4-5.2-2-6.6c4.1-3.1,8-6.8,11.4-10.9C412.1,258.8,409.1,276,398.8,290.2z M418,232.1
		c-9.9,24.9-37.7,37.5-53.9,39.9c-15.9,2.4-32.4,4.7-48.8,6.4c-0.7-0.3-1.5-0.3-2.1,0.2c-12.9,1.3-25.6,1.7-38.6,1.9
		c-10.9,1-22.1,0.3-32.7,3.7c-4.9,1.5-9.5,4.3-14.1,8.4c-5.9,5.3-10.9,12.3-15.8,19c-4.1,5.6-8,11-12.3,15.3
		c-14.7,14.6-30.8,27.7-48.3,38.8l3.2-8.4l3.4-8.9c0,0,6.7-17.4,6.9-18.1l0,0v0c0.4-0.3,0.8-0.6,1.2-0.9c1.3-1,1.3-2.6,0.5-3.6v0
		l7.2-19.1c0,0,2.1-5.6,2.1-5.6l5.1-13.2c0.3-0.9,0.1-1.8-0.4-2.5c-0.5-0.5-1.1-0.8-1.8-0.8c-0.2,0-0.4,0-0.5,0
		c-3.1,0.7-6.3,1.1-9.4,1.1c-14.3,0-29.1-7.9-40-20.2c-0.3-0.3-0.7-0.7-1-1.1c-3.9-4.6-7.3-9.8-9.9-15.5c0.1-0.9-0.4-1.7-1.1-2.2
		c-0.6-1.4-1.2-2.9-1.7-4.3c-6.2-17.6-6.4-36.6-4.7-55.1c0.1-0.3,0.3-0.6,0.4-0.9c0.4-0.8,0.2-1.6-0.1-2.3c1-9.1,2.3-18,3.7-26.6
		l0.3-2.1c2.5-16.1,3-19.4,17.2-27.9c15.6-9.3,35-10.9,52.1-12.4l165-14.1l0.5,0c3.2-0.2,6.8-0.6,10.8-0.6c9.7,0,18.1,2,25.4,6
		c18.2,10,25.6,29.7,29.1,39.2c5.8,15.5,6,28.1,6.2,48.9C421.2,213.9,421.3,223.7,418,232.1z"/>
	<path display="inline" fill="#414042" d="M362.5,143.2c3.1-0.4,1.7-5.1-1.3-4.6c-71,9.8-142.8,11.4-214.4,12.8
		c-3.1,0.1-3.1,4.9,0,4.8C218.9,154.7,291.1,153.1,362.5,143.2z"/>
	<path display="inline" fill="#414042" d="M150.8,190.3c71-13.1,143.1-16.4,215-19.5c3.1-0.1,3.1-4.9,0-4.8
		c-72.4,3.1-144.9,6.5-216.3,19.6C146.5,186.2,147.8,190.9,150.8,190.3z"/>
	<path display="inline" fill="#414042" d="M389.6,199.9c-40.7,0.1-81.3,2.8-121.7,8.2c-39.9,5.3-78.9,8.3-119.1,8.6
		c-3.1,0-3.1,4.9,0,4.8c38.8-0.4,76.7-2.9,115.2-8.1c41.7-5.6,83.6-8.6,125.7-8.7C392.8,204.7,392.8,199.9,389.6,199.9z"/>
	<path display="inline" fill="#414042" d="M385.1,233.6c-37.6,6.7-76.7,7.8-114.8,11.1c-38.1,3.3-76.1,6.6-114.2,9.8
		c-3.1,0.3-3.1,5.1,0,4.8c39.6-3.4,79.3-6.8,118.9-10.3c37-3.2,74.8-4.4,111.3-10.8C389.5,237.7,388.2,233.1,385.1,233.6z"/>
</g>
<g id="_x33_">
	<path fill="#414042" d="M372.6,400.9c-4-9-4.8-18.5-6.7-28c-1.9-9.6-4.8-19-7-28.5c-4.4-19.5-8.7-38.8-15.4-57.7
		c-2.8-7.9-5.5-15.7-7.5-23.8c-1.1-4.4-2-10.7-5.7-13.9c-5.8-4.9-17.3-5-24.5-4.9c-0.4,0-0.7,0.1-1,0.3c1.7-1-5.5-2.5-5.4-2.5
		c-2.5-0.4-4.9-1-7.1-2.2c-1.5-0.8-7-4.5-7-6.4c0-0.1,0-0.1,0-0.2c-0.7-7-2.6-13.8-2.9-20.8c5.4-7.4,9.6-15.6,12.1-21.7
		c0.7-1.7,1.3-3.4,1.9-5.1c0.4,0.2,0.9,0.3,1.4,0.2c13-3.4,17.9-15.1,17.5-27.8c-0.3-9.7-5.8-17.1-12.9-13.9
		c0.2-0.2,0.4-0.5,0.4-0.8c2.1-9.4,6.2-23.2,1.3-32.5c0.2-0.1,0.4-0.2,0.5-0.4c7.3-8.7,6-24-1.1-32.6c-3-3.6-7.3-6.1-12-4.9
		c-4,0.9-5.2,3.3-9.7,2.8c-5.7-0.6-2.5-1.6-3.8-5.7c-3.8-11.7-22.5-7.1-30.5-4.3c-12.3,4.3-19,11.8-25.3,21.2c0.9-2.2-2.4-4-3.5-1.8
		c-4.6,8.8-7.3,17.8-8.5,27.1c-0.9,0.2-1.7,0.8-1.8,1.8c-1,8.9-0.8,17.6,0,26.4c-3.1-2-7.1-2.7-10.8-1c-7.6,3.5-5,11.1-3,17.3
		c2.5,7.9,7.7,24.9,18.1,22.5c0.5,3.5,1.1,7.1,1.9,10.5c2,8.5,6.6,14.7,12.3,20.7c-0.1,4.5-0.5,9.1-0.6,13.7
		c-0.6-1.1-2.6-1.6-3.6-0.2c-2.3,3-3.3,7.4-5.7,10.1c-2.3,2.5-6.9,2.6-10.2,4c-2.5,1-2.6,2.4-4.5,4c-4,3.4-12.8,3.2-17.9,5
		c-5.9,2-10.9,5.1-17.3,6c-1.2,0.2-1.8,0.8-2,2c-1.6,12.9-6.8,26.2-9.7,39c-3.2,14-6,28.1-8.9,42.2c-2.7,13.1-5.6,26.2-7.8,39.5
		c-0.9,5.6-1.7,11.3-2.3,16.9c-0.5,4.5,0.7,11.5-1.1,15.6c-1.2,1-0.9,3.5,1.2,3.6c15.8,0.3,28.1,12,42.9,15.9c0.3,0.1,0.6,0.1,0.9,0
		c1.4,2.8,3.7,3.4,6.7,3.4c0.3,0.1,0.6,0.1,1,0c0.1,0,0.2,0,0.2-0.1c2.5-0.1,5.4-0.5,8.7-0.6c20-0.1,39.7-0.5,59.6-1.5
		c0.2,0.1,0.5,0.2,0.8,0.2c21.5,0.3,43.5,0.4,64.6-5c0.4,0.1,0.9,0.1,1.4-0.2c0.2-0.1,0.3-0.2,0.5-0.3c0.2,0,0.3-0.1,0.5-0.1
		c0.5-0.1,0.8-0.4,1-0.8c0.5-0.3,1-0.5,1.5-0.7c0.2,0.8,1.1,1.5,1.9,1.5c8.3-0.4,16.3-4.4,23.9-7.5c7.1-3,15.8-5.5,21-11.5
		C374.9,403,373.9,401.2,372.6,400.9z M308.7,265.9c2.6,7.6,4.8,17.4,3.7,25.5c-1.2,8.3-11.9,10.6-18.5,14.3
		c-0.4,0.2-0.6,0.5-0.7,0.8c0-0.1-0.1-0.2-0.1-0.3c-3.7-7.4-8.9-16.3-14.8-22.3c2.7-5.2,5.5-10.4,8.4-15.7
		c2.8-5.1,4.7-13.6,8.7-17.9C303.1,241.9,307.1,260.9,308.7,265.9z M259.6,362.8c0-5.5,0.3-11.1,0.8-16.6c1-11,3-22,5.9-32.7
		c2.5-9.2,6-17.6,10-25.8c4.9,5.4,9.7,13.3,12.7,19.5c5,10.2-5.6,23.2-10.8,31.9c-7.6,12.6-13.5,25.1-18.5,38.4
		C260.9,374.1,259.6,366.6,259.6,362.8z M242,310c-0.2-0.4-0.3-0.7-0.5-1.1c0.2,0,0.3-0.1,0.5-0.2C242,309.1,242,309.6,242,310z
		 M242,304.5C242,304.5,241.9,304.5,242,304.5c-0.6,0.2-1.1,0.3-1.6,0.5c-0.2,0.1-0.3,0.2-0.5,0.3c-1-2.3-2-4.5-3-6.8
		c0.6,1,2,1.5,3,0.4l3-3C242.4,298.8,242.1,301.6,242,304.5z M243.8,292.1c-0.7-0.7-1.9-0.9-2.8,0l-4,4c-0.6,0.6-0.6,1.2-0.5,1.8
		c-0.8-1.8-1.6-3.6-2.3-5.4l6.1-7.6c1.6-2-1.2-4.8-2.8-2.8l-2.5,3.1c0.3-1,0.5-1.8,0.6-2.2c0.8-2.5,2.5-4.8,3.9-6.9
		c0.8-1.2,4.4-4.6,4.4-5.9c0,0.5,0,0.9,0.1,1.4c0.5,3.7,3,7,5.5,10C246.8,284.6,245,288.2,243.8,292.1z M230.4,283.5
		c-0.4-1-0.9-2-1.3-3c0.1,0,0.2,0,0.4,0c2-0.6,3.6-1.6,5-3c-1.2,2.3-2.4,4.7-3.6,7.1C230.7,284.1,230.6,283.8,230.4,283.5z
		 M259.8,224c-0.1,0-0.2,0-0.3,0.1c-4.5,0.8-9.2,0-14-3.2c-2-1.3-4-2.7-6-4.3c0.4-7.7,2.7-14.2,8.3-19.6c0.2,0,0.4-0.1,0.6-0.2
		c12.8-7.5,22.6,7.2,26.5,17.8C270.4,219.3,265.3,222.9,259.8,224z M230.3,228.3c0.1,0,0.2,0,0.3,0c4.5-1.2,9.1-2.3,13.6-3.5
		c0.7,0.5,1.5,0.9,2.3,1.3c-5.4,2.4-10.7,4.9-16.1,7.3C230.2,231.8,230.2,229.9,230.3,228.3z M240,221.8c-3.2,0.8-6.5,1.7-9.7,2.5
		c0-0.7,0-1.4,0-2.2c0.2,0,0.4,0,0.7-0.1c2.3-0.7,4.6-1.4,6.9-2.1C238.6,220.6,239.3,221.2,240,221.8z M230.5,218
		c0.1-1.3,0.2-2.7,0.3-4c1.2,0.9,2.3,1.9,3.4,2.8C233,217.3,231.8,217.6,230.5,218z M232.1,237.1c6.5-2.9,12.9-5.9,19.4-8.8
		c0.8,0.2,1.7,0.4,2.5,0.5c-5.7,5.1-11.5,10.2-17.4,15.1c-1.8-2.1-3.6-4.2-5.1-6.5c0,0-0.1-0.1-0.1-0.2
		C231.7,237.2,231.9,237.2,232.1,237.1z M259.9,228.9c7-1,13.5-5.9,18.9-12.2c0.4,3.6,1.1,7.1,1.7,10.6c-0.2,0-0.4,0.1-0.7,0.2
		c-11.5,5.2-15.1,26-28.5,27.5c-1,0.1-1.6,0.9-1.8,1.7c-0.1,0.1-0.2,0.2-0.3,0.3c-0.2,0-0.4,0-0.6,0c-1.5-3.8-6.4-7.2-9.4-10.3
		C246.3,241,253.2,235,259.9,228.9z M247.9,270.5c-0.2-3.3,1.5-7.2,3.1-10.1c2.7,1.6,4.9,4.6,7,7.9c0,0.1-0.1,0.1-0.1,0.2
		c-0.5,3.9-1.5,8.5-4.3,11.5c-0.1-0.1-0.3-0.2-0.5-0.3C250.8,277.1,248.1,273.9,247.9,270.5z M261,273.3c3.3,5.5,7,10.3,12.5,10.1
		c-1.8,3.4-3.5,6.9-5,10.5c-1.2,3-2.3,5.9-3.3,9c-1.6-7.2-4.2-14.2-9.5-19.5C258.6,280.7,260.1,277.1,261,273.3z M293.7,245.1
		c-4.8,5.8-7.1,14.8-10.6,21.1c-2.4,4.3-4.8,8.5-7.1,12.7c-6.4,2.6-10.7-6.1-13.5-10.6c-2.1-3.4-4.3-7.5-7.6-10.2
		c11.6-4,15-20,25.1-26.2C283.1,237.9,287.8,241.6,293.7,245.1z M310.7,166.1c-1.4,7.8-5.5,13-13,15.3c1.8-6.2,2.9-12.5,3.3-18.7
		c0.5-0.3,0.9-0.8,0.9-1.6c0-3.2,3.2-2.8,5.5-2.1c2.4,0.8,3.5-3,1.1-3.9c-2.5-0.8-5.2-0.8-7.2,0.2c0-1.2-0.1-2.4-0.2-3.6
		c0.4-0.6,0.4-1.4,0.1-2.1C310.3,140.7,312,159,310.7,166.1z M290.8,114.1c3.4-0.3,6.6-1.2,9.1-2.9c3.7,5.8,2.3,14.4,1.2,20.7
		c-0.4,2.4-0.9,4.8-1.5,7.2c0-0.1-0.1-0.2-0.1-0.3c-0.1-1.2-0.6-2.7-0.8-3.8C297.4,128.7,296.3,118.8,290.8,114.1z M216.9,99.5
		c0.8,0.2,1.7,0.1,2.2-0.8c7.6-12,13.1-23.2,27.2-28.7c5.1-2,10.7-3.7,16.3-3.9c2.7-0.1,6.9-0.2,9.1,1.7c7.6,6.6,0.1,4.6,2.7,8.7
		c2.6,4.1,6.6,4.9,11.3,3.3c1.6-0.5,3.3-2.3,4.9-2.6c6.8-1.5,9.8,1.6,12.2,6.4c3.2,6.4,4.1,15.7,0.2,22.1c-0.7-1.2-2.6-1.6-3.3,0
		c-1.6,3.1-4.6,4.6-8.4,5.1c4.3-1.7,8-4.9,10.5-9c1.3-2.2-2.1-4.2-3.5-2c-2.8,4.8-7.5,7.7-12.9,8.4c-0.2,0-0.4,0.1-0.6,0.2
		c-0.3-0.1-0.6-0.2-0.9-0.2c-1.5,0-2.1,1.3-1.9,2.4c-2.5-0.4-5-1-7.4-1.6c8-1.5,14.9-6.4,18.9-13.8c1.2-2.3-2.2-4.3-3.5-2
		c-4.3,7.8-12.3,12.5-21.2,12.4c-0.9,0-1.4,0.4-1.7,1c-1.6-0.6-3-1.2-4-1.7c-0.3-0.1-0.6-0.2-0.9-0.3c6.4-3.6,12.1-8.3,16.9-14
		c1.7-2-1.2-4.8-2.8-2.8c-5.1,6-11.1,10.7-18,14.4c4.4-2.9,8.1-6.5,11.2-10.9c1.5-2.1-2-4.1-3.5-2c-3.8,5.3-8.8,9.5-14.8,12.3
		c-0.7,0.3-1,0.9-1,1.5c-2.2,0.3-6,2.3-8.6,2.3c9.8-4.5,17.3-12.7,20.9-23.1c0.9-2.4-3-3.5-3.9-1.1c-3.4,9.6-10.7,17.2-20,21
		c-0.2-0.5-0.4-1-0.5-1.3c4-5.1,6.8-10.8,8.3-17.2c0.6-2.5-3.3-3.6-3.8-1.1c-1.5,6.4-4.4,12.2-8.7,17.3c-0.4,0.5-0.5,1-0.5,1.5
		c-4.6,4.2-8.2,10.3-12.4,15.4c2.2-5.1,5-9.8,8.6-14.1c1.6-2-1.2-4.8-2.8-2.8c-5.4,6.7-9.5,14.1-12,22.4c-0.1,0.2,0,0.3-0.1,0.5
		c-0.4,0.3-0.9,0.6-1.3,0.9C213.5,115.2,214.6,107.3,216.9,99.5z M200.5,161.3c-0.9-2.4-1.6-4.8-2.3-7.2c-0.6-1.7-1.4-3.6-1.6-5.4
		c-0.5-8.3,9.5-7.7,12.5-2.3c0.1,1.2,0.3,2.3,0.5,3.5c-0.1,0-0.2,0.1-0.3,0.2c-0.6-0.2-1.2-0.4-1.8-0.4c-3.1,0-3.9,2.4-5.9,4.1
		c-2,1.6,0.9,4.5,2.8,2.8c0.9-0.7,1.8-2.9,3.1-2.9c1.1,0,2.2,1.5,3,2.6c0.7,6.1,1.2,12.3,1.9,18.5
		C206,176.4,202.3,166.2,200.5,161.3z M213.8,149.7c-0.1-0.8-0.2-1.7-0.3-2.6c0.1-0.3,0.1-0.7-0.1-1.1c0-0.1-0.1-0.1-0.1-0.2
		c-0.7-5.8-1.3-11.6-1.4-17.5c0.1,0,0.2,0,0.3,0c10.5-3.4,15-15.3,22.6-22.7c0.2,0.8,0.8,1.5,1.7,1.5c0,0.1,0.1,0.2,0.1,0.3
		c0.1,1,0.8,2.1,2,2c3.4-0.4,6.4-1.3,9.8-2c2.4-0.5,4.8-0.6,7-0.2c0.3,0.1,0.6,0.2,1,0.1c2.5,0.5,4.9,1.3,7.4,2.4
		c7,3.2,14.5,5.2,21.4,8.6c4.5,2.2,7.9,7.1,8.7,12.1c1,5.9,2,12,2.7,18c-13.5-0.2-26.5,4.1-40,4
		C242.3,152.6,228.1,150.2,213.8,149.7z M295.5,152.6c-6.5,3.8-3.7,11.8-9.5,16.5c-3.5,2.9-10.8,3-15.1,2.6
		c-7.1-0.6-7.5-3.7-9.3-9.7c-0.6-2.2-1.5-4.3-3-5.5C271,156.2,283.1,152.7,295.5,152.6z M252.5,156.6c-5.4,3.2-2.9,11.1-8.1,14.2
		c-3.7,2.3-9.6,1.2-13.6,0.4c-9.4-1.9-11.1-9.6-13-17.3C229.4,154.6,240.9,156.2,252.5,156.6z M223.9,200.7c-8.9-12.7-5.2-28-9-42
		c1.4,5.2,3.4,10.7,7.5,13.9c4.5,3.4,10.1,2.8,15.4,2.8c4.2,0,8.6,0.6,11.3-3.3c2.2-3.2,1.1-8.3,5.8-9.7c4.5-1.4,2.7,3.9,4.3,7.4
		c1.8,4,5.4,5.2,9.6,5.8c5.7,0.8,14.1,0.4,19.2-3c5.7-3.8,3.7-13.1,9.1-16.4c0.2,10-1.5,20-5.2,30.1c-3.2,8.7-7.8,18-13.8,25.1
		c-3.1-12.7-18.3-25.4-31.3-18.3c-0.4,0-0.9,0.1-1.3,0.5c-5.9,5.5-8.8,12.2-9.7,19.8C231.3,209.6,227,205.1,223.9,200.7z
		 M223.5,229.8c1,3.3,2.6,6.4,4.4,9.3c0.1,0.2,0.1,0.4,0.1,0.5c0.2,0.6,0.5,0.9,1,1.2c2.8,4.1,6.2,7.8,9.8,11.4
		c3.4,3.4,4.5,3.3,4.4,8.4c-0.1,4.1-0.8,4.5-3,7.5c-1.5,2.2-2.9,4.3-4.1,6.6c-0.3-1.4-2.6-2.2-3.8-0.6c-1,1.3-2.3,2.1-3.8,2.6
		c-0.3,0.1-0.6,0.3-0.8,0.5c-0.7-1.5-1.4-3.1-2.1-4.6c0,0,0.1,0,0.1,0c0.8-0.6,1.6-1.1,2.4-1.7c2.1-1.4,0.1-4.9-2-3.4
		c-0.7,0.5-1.5,1-2.2,1.5c-0.8-1.7-1.6-3.4-2.4-5.1c0,0,0.1,0,0.1,0c1.2-0.8,2.3-1.7,3.5-2.5c2.1-1.5,0.1-4.9-2-3.4
		c-1.1,0.8-2.2,1.5-3.2,2.3c-0.5-1.1-1-2.3-1.4-3.4c2.3-1.1,4.2-2.8,5.3-5.2c1.1-2.3-2.3-4.3-3.4-2c-0.7,1.5-1.8,2.7-3.3,3.5
		c-0.4-1.1-0.8-2.2-1.1-3.3c0.1,0,0.1-0.1,0.2-0.1c1.2-1,2.3-2,3.5-3c1.9-1.7-0.9-4.5-2.8-2.8c-0.7,0.6-1.4,1.2-2.1,1.8
		c0-0.1,0-0.1-0.1-0.2C218.5,240.7,220.5,235,223.5,229.8z M209.3,238.7c1.5,12.5,7.6,23.1,12.6,34.7c1,2.2,1.9,4.5,2.8,6.7
		c-0.4,0-0.8,0.2-1.2,0.5c-4.6,4.2-7.3,9.4-10,14.9c-0.8,1.7-2.3,3.9-3.7,6.2c-1.7-1.3-3.4-2.3-5.4-2.6c-2.3-0.9-4.6-1.4-7.1-2.3
		c-1-0.2-2.1-0.5-3.1-0.7c-4-0.7-5.2-2.4-3.7-5c-0.1-1.9,0.2-4.1,0.6-6.3c0.5-0.6,0.5-1.2,0.3-1.7c1-4.7,2.7-9.5,3.4-13.5
		C196,262.9,201.5,244.7,209.3,238.7z M254.4,425.5c-4.7,0.8-43.9,1-47.7,0.9c-3.8,0-7.9,0.3-11.9,0.4c1.7-1.5,3.3-3.1,5.2-4.3
		c4.6-3.1,9.6-5.7,13.9-9.3c2-1.6-0.9-4.4-2.8-2.8c-4.1,3.3-8.7,5.7-13.1,8.6c-3.1,2.1-6.3,6.1-9.9,7.5c-2.7-0.5-4.2-1.9-5-3.9
		c0.4,0,0.9-0.1,1.3-0.4c8.1-6.3,14.9-14.9,24.6-19c2.3-1,1.3-4.8-1.1-3.8c-10.1,4.2-17.1,12.6-25.6,19.3c-0.1-2.4,0.2-5.1,0.3-7.5
		c0-0.9,0.1-1.7,0.1-2.6c0.2-0.1,0.4-0.2,0.7-0.4c6.6-6.8,14.7-11.4,23.1-15.7c2.3-1.2,0.3-4.6-2-3.5c-7.8,3.9-15.1,8.3-21.5,14.2
		c0.1-3.8,0.3-7.7,0.4-11.5c3.3-2,5.7-5,8.5-7.6c4.2-3.9,8.7-7.3,13.7-10c2.3-1.2,0.2-4.7-2-3.4c-4.4,2.4-8.4,5.3-12.1,8.5
		c-2.6,2.3-5,5.3-7.8,7.6c0.1-3.3,0.2-6.6,0.4-10c6.8-3.5,11.6-10.4,16.4-16c1.7-1.9-1.1-4.8-2.8-2.8c-4.1,4.7-8.1,10.5-13.3,14.1
		c0.3-3.8,0.7-7.6,1.1-11.5c2.5-0.7,4.6-2.9,6.3-4.6c2.4-2.4,4.5-5.4,7.4-7.3c2.1-1.4,0.1-4.9-2-3.4c-2.6,1.7-4.6,4.1-6.7,6.3
		c-1.2,1.3-2.7,3.2-4.4,4.4c0.4-3.5,0.8-7,1-10.5c3.6-1.6,6-4.9,9.1-7.3c2-1.5,0-5-2-3.4c-2.3,1.7-4.3,4.4-6.8,6.1
		c0.1-3.6,0.1-7.3-0.2-10.9c-0.2-2.5-4.2-2.6-4,0c1.5,17.9-2.8,36.4-3.3,54.4c0,1.7-0.1,3.5-0.2,5.3c-0.6,0.6-0.6,1.5-0.1,2.2
		c-0.7,10.2-1.8,20.9-0.4,30.6c0,0.2,0.1,0.4,0.1,0.6c-13.7-4.1-25.2-14-39.6-15.4c0.7-3.2,0.4-6.6,0.5-9.9c0.4-8.9,2-17.9,3.6-26.6
		c3.3-18.2,7.2-36.3,11-54.3c3.7-17.9,7.4-35.9,12.7-53.4c2.2-7.4,2.3-6.3,9.7-9c7.5-2.7,14.7-4.7,22.2-6.9
		c-0.4,0.7-0.7,1.4-1.1,2.1c-0.5-0.3-1.2-0.5-1.9-0.1c-5.2,2.4-10.4,7.6-16.5,7.2c-2.6-0.2-2.6,3.8,0,4c6.1,0.4,11-3.7,16.1-6.5
		c-1.3,2.8-2.4,5.6-3.3,8.6c-0.3,0-0.6,0.1-0.9,0.2c-4.7,2.2-8.9,5.4-13,8.5c-2,1.5,0,5,2,3.4c3.4-2.6,6.9-5.2,10.7-7.3
		c-0.1,0.3-0.2,0.6-0.2,1c-0.8,4.5-1.6,9-2.5,13.4c-0.1,0.1-0.2,0.1-0.3,0.2c-1.9,2-4.6,3-7.1,4.2c-2.3,1.1-0.3,4.5,2,3.4
		c1.3-0.6,2.6-1.2,3.9-1.9c-0.8,2.4-1.8,5.3-1.3,7.3c1,4.1,5.8,5.5,9.8,6.2c-3.4,2.2-6.8,4.4-10.3,6.6c-2.2,1.4-0.2,4.8,2,3.4
		c4.7-3,9.3-6,14-9c0.1-0.1,0.2-0.2,0.3-0.3c1.2,0.1,2.4,0.4,3.6,0.9c0.5,0.2,0.8,0.4,1.2,0.7c-2.7,2.9-5.9,5.1-9.7,6.3
		c-2.4,0.8-1.4,4.6,1.1,3.8c3.4-1.1,6.5-2.9,9.2-5.2c-0.1,0.4-0.1,0.9-0.1,1.4c0.1,2.9,1.6,4.1,3.7,6.2c0.1,0.1,0.2,0.2,0.4,0.4
		c-2.9,1.9-5.9,3.8-8.8,5.6c-2.2,1.4-0.2,4.8,2,3.4c3.2-2.1,6.5-4.1,9.7-6.2c4.9,4.9,9.3,9.6,13,15.9c8.3,14.2,15,30.1,19.6,45.9
		c3.7,12.7,3.3,27.3,8.4,39.6C254.5,422.3,254.5,423.9,254.4,425.5z M255.2,409.1c-1.8-9-2.3-18.7-4.7-27.3
		c-3.5-12.6-8.7-24.7-14.2-36.5c-5.4-11.3-11.5-21.3-20.7-29.8c0,0,0,0,0,0c-0.1-0.1-0.2-0.3-0.4-0.4c-5.4-5.2-3.3-7.1,0-13.7
		c3.2-6.4,5.8-12.7,11.1-17.7c5.2,12.5,10.1,25.2,16,37.4c4.8,10,8.6,20.6,11,31.4c1.4,6.4,1.8,13,2.1,19.5c0.2,6.6,0.4,13,0.4,19.4
		C255.7,397.3,255.6,403.1,255.2,409.1z M256.4,348.2c0.4-5.5-3.5-12.4-5.6-17.8c-0.2-0.6-0.4-1.1-0.6-1.6
		c-1.5-4.5-3.5-9.3-4.4-13.9c-1.9-9.6-0.3-21.9,6-29.7c0.9-1.1,7.6,11.5,8,12.6c1.3,3.7,3.1,8,3.2,11.9c0.2,3.5-1.8,7-2.5,10.5
		C258.4,329.4,257.1,338.7,256.4,348.2z M340.7,416.2c-5.9,2.2-8.9,4.2-11.3-2.3c-2.2-5.9-2.5-13.1-3.7-19.3
		c-2.5-12.7-5-25.3-6.9-38.1c-1.3-8.7-1.3-21.9-6.7-29.1c-1.5-2-5,0-3.5,2c3.9,5.2,4,14.6,5.1,21c1.4,7.8,2.2,15.7,3.7,23.6
		c2.7,14.6,5.8,29.2,8.7,43.7c-0.8,0.4-1.7,0.8-2.5,1.3c-0.3,0-0.6,0.1-0.9,0.3c-0.2,0.1-0.4,0.3-0.6,0.4
		c-20.5,5.4-42.2,5.4-63.2,5.1c-0.1-0.3-0.2-0.6-0.4-0.8c0-0.6,0-1.1,0-1.7c0.3-0.5,0.5-1.2,0.2-2c0-0.1-0.1-0.2-0.1-0.3
		c0.3-10.2,0.9-20.4,1.1-30.4c3.9-11.9,7.8-23.6,13.8-34.7c6-10.9,13.2-21.1,18.6-32.4c2.4-5,3.5-8.8,2.2-13.3
		c0.5,0.2,1.1,0.2,1.7-0.1c5.4-3,16.8-5.8,19.8-11.6c3.1-5.9,0.4-16.8-0.6-23c-1.4-8.2-4.3-18.5-8.1-26.6c4.3,0,8.7,0.4,12.9,1.2
		c8.8,1.7,10.5,6.5,12.4,14.6c3.7,15.3,10.1,29.8,14.2,45c4.6,16.9,7.7,34.2,12.1,51.1c3.6,14.2,4.7,29.6,10.7,43
		C362.1,409.5,349.3,413,340.7,416.2z"/>
	<path fill="#414042" d="M263.9,204.1c-5-0.2-10-0.4-15,0c-2.5,0.2-2.6,4.2,0,4c5-0.4,10-0.2,15,0
		C266.5,208.2,266.5,204.2,263.9,204.1z"/>
</g>
</svg>
