<?xml version="1.0" encoding="utf-8"?>
<!-- Generator: Adobe Illustrator 18.0.0, SVG Export Plug-In . SVG Version: 6.00 Build 0)  -->
<!DOCTYPE svg PUBLIC "-//W3C//DTD SVG 1.1//EN" "http://www.w3.org/Graphics/SVG/1.1/DTD/svg11.dtd">
<svg version="1.1" id="Layer_1" xmlns="http://www.w3.org/2000/svg" xmlns:xlink="http://www.w3.org/1999/xlink" x="0px" y="0px"
	 viewBox="0 0 500 500" enable-background="new 0 0 500 500" xml:space="preserve">
<g id="_x32_" display="none">
	<path display="inline" fill="#414042" d="M425.7,194.2c-0.2-20.6-0.4-34.2-6.6-50.6c-3.7-10-11.6-30.8-31.4-41.6
		c-8-4.4-17.1-6.6-27.7-6.6c-4.2,0-8.1,0.3-11.2,0.6l-165.4,14.2c-17.6,1.5-37.6,3.2-54.1,13.1c-18.1,10.8-26.9,31.4-35.4,49.8
		c-5.5,11.9-11.7,24.8-14.6,37.6c-2.8,12.5-1.9,25.4-2.9,38.1c-0.4,4.9-0.8,9.7-1.1,14.6c-0.4,7.7-0.5,17.2,1,27
		c0,0.2-0.1,0.4-0.1,0.6c-0.1,0.7,0.1,1.2,0.4,1.6c1.3,7.2,3.5,14.5,7.2,21.3c0.4,0.8,0.9,1.6,1.4,2.5c0.6,0.9,1.1,1.8,1.8,2.7
		c2.3,3.3,5.1,6.3,8.4,8.9c1.4,1.1,2.7,2.2,4.2,3.1c2.6,1.7,5.3,3.2,8.1,4.3c1.5,0.6,3,1.2,4.6,1.6c1.9,0.6,3.8,1,5.8,1.1
		c1.3,0.2,2.6,0.2,3.9,0.2c0.4,0,0.8,0,1.2-0.1c1.3,0,2.6-0.1,3.9-0.4c-1.8,4.9-3.4,9.9-5,14.9c-1.1,3.5-2.2,7-3.2,10.5
		c-0.3,0.9-0.5,1.8-0.8,2.7c-0.9,2.8-2.2,6.2-2.9,9.4c-0.7,2.8-0.9,5.4-0.1,7.3c0.8,2,2.9,3.3,7,3c0.4,0,0.9-0.1,1.3-0.1
		c1.6-0.2,3.1-0.5,4.7-0.8c5.4-1.2,10.6-3.2,15.2-6.1c2.8-1.7,4.7-4.4,7.1-6.6c2.5-2.3,5.1-3.6,8-5.4c6.9-4.4,12.9-10,19.2-15.2
		c6.2-5.2,13-11.5,21.1-13.4c3.4-0.8,6.8-1.6,10.1-2.3c2-0.4,4-0.9,6-1.3c5.6-1.2,11.1-2.3,16.7-3.3c10.7-2.1,21.4-3.5,32.3-4.3
		c14.3-1.1,28.8-1.1,43.1-1.7c7.9-0.3,15.9-0.4,23.8-1.5c4.7-0.6,9.4-0.6,14-1.8c10.6-2.7,21.8-3.9,31.9-8.2
		c9.3-3.9,17.3-9.7,23.5-17.5c12.3-15.4,18-35.8,20.4-55c0.8-6.5,4-12,4.8-18.6C426.3,213.1,425.9,203.6,425.7,194.2z M82.6,227.7
		c0.7-9.6,2.1-19.1,5.7-28.8c6.1-16.3,13.5-32.1,22.1-47.3c-0.2,0.9-0.3,1.9-0.5,3l-0.3,2.1c-1.4,9.3-3,19.1-3.9,29
		c-4.5,9.2-11.1,17.1-15.8,26.2C87.2,217,84.7,222.3,82.6,227.7L82.6,227.7z M79.9,274.2C79.9,274.2,79.9,274.2,79.9,274.2
		c0-3.8,0.1-7.3,0.2-10.6c0.2-4.8,0.7-9.6,1.1-14.4c0.1-1.6,0.2-3.1,0.3-4.7v0c0.4-0.3,0.8-0.7,1-1.4C85.4,232,90,221,95.8,211
		c2.8-4.8,6-9.4,9-14c0,0,0,0,0,0.1c-0.3,7.9-0.2,15.8,0.6,23.7v0c-0.1,0.2-0.2,0.3-0.3,0.5c-1.4,5.7-5.5,9.9-8.6,14.6
		c-3.7,5.7-6.5,12-9.2,18.3C84.6,260.9,82,267.4,79.9,274.2C79.9,274.2,79.9,274.2,79.9,274.2z M85.3,305.9
		c-2.1-5.1-3.4-10.3-4.2-15.5c1.9-14.9,8.1-29.8,14.7-43.1c2.9-5.9,7.7-11.4,11-17.3l0,0c0,0.1,0,0.1,0,0.1
		c0.9,4.7,2.1,9.2,3.7,13.8c0.6,1.8,1.3,3.5,2,5.2C103.3,268,90.4,285.4,85.3,305.9z M96.8,322.9c-3-2.7-5.5-5.8-7.5-9.1
		c-0.2-0.3-0.4-0.7-0.6-1c3.3-21.4,16.7-39.3,26.5-58.4c2.4,4.4,5.1,8.5,8.2,12.3c-4.8,11.5-12.3,21.6-17.4,32.9
		C102.5,307.3,99.3,314.9,96.8,322.9z M109.2,330.8c-2.9-1.2-5.7-2.7-8.2-4.6c6-20,17.8-36.5,26.1-55.4c3,3.1,6.1,5.9,9.4,8.3
		c-4.7,9.3-12.2,17.1-16.6,26.7C116.3,313.7,112.1,322.2,109.2,330.8z M120.5,333.5c-2.3-0.1-4.5-0.5-6.7-1.1
		c2.9-8.5,7.2-17.2,10.6-24.7c4.3-9.4,11.5-16.9,16.1-25.9c3.5,2.2,7.2,3.9,10.9,5.3c-7,7.2-11.4,16.1-16.5,24.6
		C130.5,319,124.7,326,120.5,333.5z M126.2,333.2c3.9-6.6,9.1-12.7,12.9-19c5-8.5,9.3-17.2,16.3-24.2c0.4-0.4,0.6-0.9,0.6-1.4
		c4.2,1.2,8.6,1.8,12.9,1.8c0.7,0,1.3-0.1,2-0.1c-15.6,12.7-29.9,26.9-42.4,42.6C127.7,333,126.9,333.1,126.2,333.2z M173.3,294.4
		l-3.6,9.3c-10,9-19.9,17.9-29.2,27.6c-3.7,3.9-7.1,8-10.5,12.2c2.4-7.5,5.5-15,11.5-19.6c5.5-4.2,10.1-10,15.1-14.9
		c2.6-2.6,5.4-5.1,8.2-7.5C166.7,299.9,172.4,296.7,173.3,294.4z M126.4,355.7c0-0.2,0.1-0.2,0.1-0.4c5.9-6.8,11.3-14,17.4-20.4
		c7.1-7.4,14.5-14.3,22-21.2l-5.1,13.4c-9.5,6.9-18.3,13.8-26,23.1c-3.7,4.5-7.3,9.2-10.9,13.7C124.7,361.1,125.5,358.4,126.4,355.7
		z M125.3,380.5c-2.1,0.3-4.2,0.4-6.3,0.3c0.4-1.3,0.8-2.7,1.2-4.1c0-0.1,0-0.1,0-0.1c4.4-5.8,9.1-11.3,13.6-17
		c7.6-9.5,15.1-16.9,24-24l-7.2,18.9c-5.4,4.9-10.5,10.2-15.5,15.6c-3.2,3.5-6.6,6.7-9.4,10.3C125.5,380.5,125.4,380.5,125.3,380.5z
		 M144.4,370.5c-0.2,0.5-0.2,1.1,0,1.6c-3,2.4-6.6,4.8-11,6.5c2.8-3.1,5.9-5.9,8.5-8.8c1.5-1.6,3.1-3.3,4.7-4.9L144.4,370.5z
		 M211.6,330.7c-4.3,1.1-8.6,2.3-12.9,3.6c1.4-1.4,2.9-2.7,4.3-4.1c4.5-4.6,8.7-10.3,12.8-15.9c4.7-6.5,9.6-13.2,15.1-18.2
		c1.7-1.5,3.4-2.8,5.1-4c-4.2,5.4-8.5,10.9-12.1,16.8C219.6,316.1,216.5,324,211.6,330.7z M230,325.7c-0.2,0.3-0.3,0.5-0.3,0.8h0
		c-3.8,0.7-7.6,1.5-11.3,2.5c3-5,5.5-10.2,8.4-15.2c5.1-9.1,12-17,18.3-25.3c0.1-0.1,0.2-0.1,0.2-0.2c3.1-0.9,6.3-1.3,9.6-1.6
		c0,0,0,0,0.1,0C245.9,299.2,238.5,312.8,230,325.7z M236,325.4C236,325.4,236,325.4,236,325.4c8.2-12.9,15.5-26.4,24.7-38.8
		c0.1-0.2,0.1-0.3,0.2-0.5h0h0c2.9-0.2,5.8-0.2,8.7-0.2h2c-2.9,5.5-5.4,11.3-8.3,16.8c-3.5,6.7-7.1,13.2-10.1,20.1
		C247.6,323.5,241.7,324.3,236,325.4z M275.2,321.3c-3.8,0.2-7.7,0.3-11.7,0.6c-1.5,0.1-3.1,0.2-4.6,0.4c3.1-6.8,6.8-13.2,10.2-19.9
		c2.8-5.6,5.2-11.2,8.3-16.6c4.6-0.1,9.3-0.3,14-0.6h0c0,0,0,0,0.1,0c-3.1,4.2-4.3,9.1-6,14C282.8,306.9,278.5,313.9,275.2,321.3
		C275.2,321.3,275.2,321.3,275.2,321.3z M289.1,321c-2.8,0-5.7,0.1-8.6,0.2c2.6-5.8,5.9-11.3,8.2-17.2c2.3-5.6,3-12.2,7.1-16.9
		c0.6-0.7,0.7-1.5,0.5-2.2h0c4.7-0.3,9.3-0.8,14-1.2c-3.2,6.3-6.4,12.6-9.1,19.2c-2.5,6.1-4.2,12.4-7.5,18
		C292.1,320.9,290.6,320.9,289.1,321z M299.3,320.8c2.2-4.3,3.6-8.9,5.3-13.5c3.1-8.3,7.3-16.2,11.3-24.1c4.8-0.5,9.7-1,14.5-1.6
		c-0.1,0.1-0.1,0.2-0.2,0.3c-5,12.8-9.9,25.5-15.1,38.2C309.7,320.4,304.4,320.6,299.3,320.8z M339.6,317.1c0,0-0.1,0-0.1,0
		c-6.9,1.1-13.1,1.8-18.9,2.4c4.9-12.1,9.6-24.3,14.4-36.5c0.3-0.9,0.1-1.6-0.4-2.1c6.5-0.8,13-1.7,19.4-2.6
		C350,291.5,345.8,304.7,339.6,317.1z M345.4,316.1c5.8-12.4,9.9-25.5,13.9-38.5c1.8-0.3,3.7-0.5,5.5-0.8c3.2-0.5,6.8-1.4,10.5-2.6
		c-3.6,12.4-3.2,26.3-9.7,37.5C358.9,313.4,352.2,314.8,345.4,316.1z M396.2,281.8c-1.4,6.3-3.6,12.4-6.6,18.1
		c-0.1,0.2-0.1,0.3-0.1,0.5c-1.8,1.5-3.7,3-5.9,4.3c-3.6,2.2-7.5,3.9-11.6,5.3c4.9-11.6,4.6-25.2,8.8-37.1c0.1-0.2,0.1-0.4,0.1-0.6
		c5.5-2.2,11.3-5.1,16.7-8.8c-0.3,2.7,0.3,6.3,0.3,7.8C397.8,274.6,396.9,278.4,396.2,281.8z M398.8,290.2c2.1-2.9,2.5-9.1,3-12.5
		c0.5-3.6,0.9-7,1.8-10.5c0.3-1.5-0.4-5.2-2-6.6c4.1-3.1,8-6.8,11.4-10.9C412.1,258.8,409.1,276,398.8,290.2z M418,232.1
		c-9.9,24.9-37.7,37.5-53.9,39.9c-15.9,2.4-32.4,4.7-48.8,6.4c-0.7-0.3-1.5-0.3-2.1,0.2c-12.9,1.3-25.6,1.7-38.6,1.9
		c-10.9,1-22.1,0.3-32.7,3.7c-4.9,1.5-9.5,4.3-14.1,8.4c-5.9,5.3-10.9,12.3-15.8,19c-4.1,5.6-8,11-12.3,15.3
		c-14.7,14.6-30.8,27.7-48.3,38.8l3.2-8.4l3.4-8.9c0,0,6.7-17.4,6.9-18.1l0,0v0c0.4-0.3,0.8-0.6,1.2-0.9c1.3-1,1.3-2.6,0.5-3.6v0
		l7.2-19.1c0,0,2.1-5.6,2.1-5.6l5.1-13.2c0.3-0.9,0.1-1.8-0.4-2.5c-0.5-0.5-1.1-0.8-1.8-0.8c-0.2,0-0.4,0-0.5,0
		c-3.1,0.7-6.3,1.1-9.4,1.1c-14.3,0-29.1-7.9-40-20.2c-0.3-0.3-0.7-0.7-1-1.1c-3.9-4.6-7.3-9.8-9.9-15.5c0.1-0.9-0.4-1.7-1.1-2.2
		c-0.6-1.4-1.2-2.9-1.7-4.3c-6.2-17.6-6.4-36.6-4.7-55.1c0.1-0.3,0.3-0.6,0.4-0.9c0.4-0.8,0.2-1.6-0.1-2.3c1-9.1,2.3-18,3.7-26.6
		l0.3-2.1c2.5-16.1,3-19.4,17.2-27.9c15.6-9.3,35-10.9,52.1-12.4l165-14.1l0.5,0c3.2-0.2,6.8-0.6,10.8-0.6c9.7,0,18.1,2,25.4,6
		c18.2,10,25.6,29.7,29.1,39.2c5.8,15.5,6,28.1,6.2,48.9C421.2,213.9,421.3,223.7,418,232.1z"/>
	<path display="inline" fill="#414042" d="M362.5,143.2c3.1-0.4,1.7-5.1-1.3-4.6c-71,9.8-142.8,11.4-214.4,12.8
		c-3.1,0.1-3.1,4.9,0,4.8C218.9,154.7,291.1,153.1,362.5,143.2z"/>
	<path display="inline" fill="#414042" d="M150.8,190.3c71-13.1,143.1-16.4,215-19.5c3.1-0.1,3.1-4.9,0-4.8
		c-72.4,3.1-144.9,6.5-216.3,19.6C146.5,186.2,147.8,190.9,150.8,190.3z"/>
	<path display="inline" fill="#414042" d="M389.6,199.9c-40.7,0.1-81.3,2.8-121.7,8.2c-39.9,5.3-78.9,8.3-119.1,8.6
		c-3.1,0-3.1,4.9,0,4.8c38.8-0.4,76.7-2.9,115.2-8.1c41.7-5.6,83.6-8.6,125.7-8.7C392.8,204.7,392.8,199.9,389.6,199.9z"/>
	<path display="inline" fill="#414042" d="M385.1,233.6c-37.6,6.7-76.7,7.8-114.8,11.1c-38.1,3.3-76.1,6.6-114.2,9.8
		c-3.1,0.3-3.1,5.1,0,4.8c39.6-3.4,79.3-6.8,118.9-10.3c37-3.2,74.8-4.4,111.3-10.8C389.5,237.7,388.2,233.1,385.1,233.6z"/>
</g>
<g id="_x33_" display="none">
	<path display="inline" fill="#414042" d="M372.6,400.9c-4-9-4.8-18.5-6.7-28c-1.9-9.6-4.8-19-7-28.5c-4.4-19.5-8.7-38.8-15.4-57.7
		c-2.8-7.9-5.5-15.7-7.5-23.8c-1.1-4.4-2-10.7-5.7-13.9c-5.8-4.9-17.3-5-24.5-4.9c-0.4,0-0.7,0.1-1,0.3c1.7-1-5.5-2.5-5.4-2.5
		c-2.5-0.4-4.9-1-7.1-2.2c-1.5-0.8-7-4.5-7-6.4c0-0.1,0-0.1,0-0.2c-0.7-7-2.6-13.8-2.9-20.8c5.4-7.4,9.6-15.6,12.1-21.7
		c0.7-1.7,1.3-3.4,1.9-5.1c0.4,0.2,0.9,0.3,1.4,0.2c13-3.4,17.9-15.1,17.5-27.8c-0.3-9.7-5.8-17.1-12.9-13.9
		c0.2-0.2,0.4-0.5,0.4-0.8c2.1-9.4,6.2-23.2,1.3-32.5c0.2-0.1,0.4-0.2,0.5-0.4c7.3-8.7,6-24-1.1-32.6c-3-3.6-7.3-6.1-12-4.9
		c-4,0.9-5.2,3.3-9.7,2.8c-5.7-0.6-2.5-1.6-3.8-5.7c-3.8-11.7-22.5-7.1-30.5-4.3c-12.3,4.3-19,11.8-25.3,21.2c0.9-2.2-2.4-4-3.5-1.8
		c-4.6,8.8-7.3,17.8-8.5,27.1c-0.9,0.2-1.7,0.8-1.8,1.8c-1,8.9-0.8,17.6,0,26.4c-3.1-2-7.1-2.7-10.8-1c-7.6,3.5-5,11.1-3,17.3
		c2.5,7.9,7.7,24.9,18.1,22.5c0.5,3.5,1.1,7.1,1.9,10.5c2,8.5,6.6,14.7,12.3,20.7c-0.1,4.5-0.5,9.1-0.6,13.7
		c-0.6-1.1-2.6-1.6-3.6-0.2c-2.3,3-3.3,7.4-5.7,10.1c-2.3,2.5-6.9,2.6-10.2,4c-2.5,1-2.6,2.4-4.5,4c-4,3.4-12.8,3.2-17.9,5
		c-5.9,2-10.9,5.1-17.3,6c-1.2,0.2-1.8,0.8-2,2c-1.6,12.9-6.8,26.2-9.7,39c-3.2,14-6,28.1-8.9,42.2c-2.7,13.1-5.6,26.2-7.8,39.5
		c-0.9,5.6-1.7,11.3-2.3,16.9c-0.5,4.5,0.7,11.5-1.1,15.6c-1.2,1-0.9,3.5,1.2,3.6c15.8,0.3,28.1,12,42.9,15.9c0.3,0.1,0.6,0.1,0.9,0
		c1.4,2.8,3.7,3.4,6.7,3.4c0.3,0.1,0.6,0.1,1,0c0.1,0,0.2,0,0.2-0.1c2.5-0.1,5.4-0.5,8.7-0.6c20-0.1,39.7-0.5,59.6-1.5
		c0.2,0.1,0.5,0.2,0.8,0.2c21.5,0.3,43.5,0.4,64.6-5c0.4,0.1,0.9,0.1,1.4-0.2c0.2-0.1,0.3-0.2,0.5-0.3c0.2,0,0.3-0.1,0.5-0.1
		c0.5-0.1,0.8-0.4,1-0.8c0.5-0.3,1-0.5,1.5-0.7c0.2,0.8,1.1,1.5,1.9,1.5c8.3-0.4,16.3-4.4,23.9-7.5c7.1-3,15.8-5.5,21-11.5
		C374.9,403,373.9,401.2,372.6,400.9z M308.7,265.9c2.6,7.6,4.8,17.4,3.7,25.5c-1.2,8.3-11.9,10.6-18.5,14.3
		c-0.4,0.2-0.6,0.5-0.7,0.8c0-0.1-0.1-0.2-0.1-0.3c-3.7-7.4-8.9-16.3-14.8-22.3c2.7-5.2,5.5-10.4,8.4-15.7
		c2.8-5.1,4.7-13.6,8.7-17.9C303.1,241.9,307.1,260.9,308.7,265.9z M259.6,362.8c0-5.5,0.3-11.1,0.8-16.6c1-11,3-22,5.9-32.7
		c2.5-9.2,6-17.6,10-25.8c4.9,5.4,9.7,13.3,12.7,19.5c5,10.2-5.6,23.2-10.8,31.9c-7.6,12.6-13.5,25.1-18.5,38.4
		C260.9,374.1,259.6,366.6,259.6,362.8z M242,310c-0.2-0.4-0.3-0.7-0.5-1.1c0.2,0,0.3-0.1,0.5-0.2C242,309.1,242,309.6,242,310z
		 M242,304.5C242,304.5,241.9,304.5,242,304.5c-0.6,0.2-1.1,0.3-1.6,0.5c-0.2,0.1-0.3,0.2-0.5,0.3c-1-2.3-2-4.5-3-6.8
		c0.6,1,2,1.5,3,0.4l3-3C242.4,298.8,242.1,301.6,242,304.5z M243.8,292.1c-0.7-0.7-1.9-0.9-2.8,0l-4,4c-0.6,0.6-0.6,1.2-0.5,1.8
		c-0.8-1.8-1.6-3.6-2.3-5.4l6.1-7.6c1.6-2-1.2-4.8-2.8-2.8l-2.5,3.1c0.3-1,0.5-1.8,0.6-2.2c0.8-2.5,2.5-4.8,3.9-6.9
		c0.8-1.2,4.4-4.6,4.4-5.9c0,0.5,0,0.9,0.1,1.4c0.5,3.7,3,7,5.5,10C246.8,284.6,245,288.2,243.8,292.1z M230.4,283.5
		c-0.4-1-0.9-2-1.3-3c0.1,0,0.2,0,0.4,0c2-0.6,3.6-1.6,5-3c-1.2,2.3-2.4,4.7-3.6,7.1C230.7,284.1,230.6,283.8,230.4,283.5z
		 M259.8,224c-0.1,0-0.2,0-0.3,0.1c-4.5,0.8-9.2,0-14-3.2c-2-1.3-4-2.7-6-4.3c0.4-7.7,2.7-14.2,8.3-19.6c0.2,0,0.4-0.1,0.6-0.2
		c12.8-7.5,22.6,7.2,26.5,17.8C270.4,219.3,265.3,222.9,259.8,224z M230.3,228.3c0.1,0,0.2,0,0.3,0c4.5-1.2,9.1-2.3,13.6-3.5
		c0.7,0.5,1.5,0.9,2.3,1.3c-5.4,2.4-10.7,4.9-16.1,7.3C230.2,231.8,230.2,229.9,230.3,228.3z M240,221.8c-3.2,0.8-6.5,1.7-9.7,2.5
		c0-0.7,0-1.4,0-2.2c0.2,0,0.4,0,0.7-0.1c2.3-0.7,4.6-1.4,6.9-2.1C238.6,220.6,239.3,221.2,240,221.8z M230.5,218
		c0.1-1.3,0.2-2.7,0.3-4c1.2,0.9,2.3,1.9,3.4,2.8C233,217.3,231.8,217.6,230.5,218z M232.1,237.1c6.5-2.9,12.9-5.9,19.4-8.8
		c0.8,0.2,1.7,0.4,2.5,0.5c-5.7,5.1-11.5,10.2-17.4,15.1c-1.8-2.1-3.6-4.2-5.1-6.5c0,0-0.1-0.1-0.1-0.2
		C231.7,237.2,231.9,237.2,232.1,237.1z M259.9,228.9c7-1,13.5-5.9,18.9-12.2c0.4,3.6,1.1,7.1,1.7,10.6c-0.2,0-0.4,0.1-0.7,0.2
		c-11.5,5.2-15.1,26-28.5,27.5c-1,0.1-1.6,0.9-1.8,1.7c-0.1,0.1-0.2,0.2-0.3,0.3c-0.2,0-0.4,0-0.6,0c-1.5-3.8-6.4-7.2-9.4-10.3
		C246.3,241,253.2,235,259.9,228.9z M247.9,270.5c-0.2-3.3,1.5-7.2,3.1-10.1c2.7,1.6,4.9,4.6,7,7.9c0,0.1-0.1,0.1-0.1,0.2
		c-0.5,3.9-1.5,8.5-4.3,11.5c-0.1-0.1-0.3-0.2-0.5-0.3C250.8,277.1,248.1,273.9,247.9,270.5z M261,273.3c3.3,5.5,7,10.3,12.5,10.1
		c-1.8,3.4-3.5,6.9-5,10.5c-1.2,3-2.3,5.9-3.3,9c-1.6-7.2-4.2-14.2-9.5-19.5C258.6,280.7,260.1,277.1,261,273.3z M293.7,245.1
		c-4.8,5.8-7.1,14.8-10.6,21.1c-2.4,4.3-4.8,8.5-7.1,12.7c-6.4,2.6-10.7-6.1-13.5-10.6c-2.1-3.4-4.3-7.5-7.6-10.2
		c11.6-4,15-20,25.1-26.2C283.1,237.9,287.8,241.6,293.7,245.1z M310.7,166.1c-1.4,7.8-5.5,13-13,15.3c1.8-6.2,2.9-12.5,3.3-18.7
		c0.5-0.3,0.9-0.8,0.9-1.6c0-3.2,3.2-2.8,5.5-2.1c2.4,0.8,3.5-3,1.1-3.9c-2.5-0.8-5.2-0.8-7.2,0.2c0-1.2-0.1-2.4-0.2-3.6
		c0.4-0.6,0.4-1.4,0.1-2.1C310.3,140.7,312,159,310.7,166.1z M290.8,114.1c3.4-0.3,6.6-1.2,9.1-2.9c3.7,5.8,2.3,14.4,1.2,20.7
		c-0.4,2.4-0.9,4.8-1.5,7.2c0-0.1-0.1-0.2-0.1-0.3c-0.1-1.2-0.6-2.7-0.8-3.8C297.4,128.7,296.3,118.8,290.8,114.1z M216.9,99.5
		c0.8,0.2,1.7,0.1,2.2-0.8c7.6-12,13.1-23.2,27.2-28.7c5.1-2,10.7-3.7,16.3-3.9c2.7-0.1,6.9-0.2,9.1,1.7c7.6,6.6,0.1,4.6,2.7,8.7
		c2.6,4.1,6.6,4.9,11.3,3.3c1.6-0.5,3.3-2.3,4.9-2.6c6.8-1.5,9.8,1.6,12.2,6.4c3.2,6.4,4.1,15.7,0.2,22.1c-0.7-1.2-2.6-1.6-3.3,0
		c-1.6,3.1-4.6,4.6-8.4,5.1c4.3-1.7,8-4.9,10.5-9c1.3-2.2-2.1-4.2-3.5-2c-2.8,4.8-7.5,7.7-12.9,8.4c-0.2,0-0.4,0.1-0.6,0.2
		c-0.3-0.1-0.6-0.2-0.9-0.2c-1.5,0-2.1,1.3-1.9,2.4c-2.5-0.4-5-1-7.4-1.6c8-1.5,14.9-6.4,18.9-13.8c1.2-2.3-2.2-4.3-3.5-2
		c-4.3,7.8-12.3,12.5-21.2,12.4c-0.9,0-1.4,0.4-1.7,1c-1.6-0.6-3-1.2-4-1.7c-0.3-0.1-0.6-0.2-0.9-0.3c6.4-3.6,12.1-8.3,16.9-14
		c1.7-2-1.2-4.8-2.8-2.8c-5.1,6-11.1,10.7-18,14.4c4.4-2.9,8.1-6.5,11.2-10.9c1.5-2.1-2-4.1-3.5-2c-3.8,5.3-8.8,9.5-14.8,12.3
		c-0.7,0.3-1,0.9-1,1.5c-2.2,0.3-6,2.3-8.6,2.3c9.8-4.5,17.3-12.7,20.9-23.1c0.9-2.4-3-3.5-3.9-1.1c-3.4,9.6-10.7,17.2-20,21
		c-0.2-0.5-0.4-1-0.5-1.3c4-5.1,6.8-10.8,8.3-17.2c0.6-2.5-3.3-3.6-3.8-1.1c-1.5,6.4-4.4,12.2-8.7,17.3c-0.4,0.5-0.5,1-0.5,1.5
		c-4.6,4.2-8.2,10.3-12.4,15.4c2.2-5.1,5-9.8,8.6-14.1c1.6-2-1.2-4.8-2.8-2.8c-5.4,6.7-9.5,14.1-12,22.4c-0.1,0.2,0,0.3-0.1,0.5
		c-0.4,0.3-0.9,0.6-1.3,0.9C213.5,115.2,214.6,107.3,216.9,99.5z M200.5,161.3c-0.9-2.4-1.6-4.8-2.3-7.2c-0.6-1.7-1.4-3.6-1.6-5.4
		c-0.5-8.3,9.5-7.7,12.5-2.3c0.1,1.2,0.3,2.3,0.5,3.5c-0.1,0-0.2,0.1-0.3,0.2c-0.6-0.2-1.2-0.4-1.8-0.4c-3.1,0-3.9,2.4-5.9,4.1
		c-2,1.6,0.9,4.5,2.8,2.8c0.9-0.7,1.8-2.9,3.1-2.9c1.1,0,2.2,1.5,3,2.6c0.7,6.1,1.2,12.3,1.9,18.5
		C206,176.4,202.3,166.2,200.5,161.3z M213.8,149.7c-0.1-0.8-0.2-1.7-0.3-2.6c0.1-0.3,0.1-0.7-0.1-1.1c0-0.1-0.1-0.1-0.1-0.2
		c-0.7-5.8-1.3-11.6-1.4-17.5c0.1,0,0.2,0,0.3,0c10.5-3.4,15-15.3,22.6-22.7c0.2,0.8,0.8,1.5,1.7,1.5c0,0.1,0.1,0.2,0.1,0.3
		c0.1,1,0.8,2.1,2,2c3.4-0.4,6.4-1.3,9.8-2c2.4-0.5,4.8-0.6,7-0.2c0.3,0.1,0.6,0.2,1,0.1c2.5,0.5,4.9,1.3,7.4,2.4
		c7,3.2,14.5,5.2,21.4,8.6c4.5,2.2,7.9,7.1,8.7,12.1c1,5.9,2,12,2.7,18c-13.5-0.2-26.5,4.1-40,4
		C242.3,152.6,228.1,150.2,213.8,149.7z M295.5,152.6c-6.5,3.8-3.7,11.8-9.5,16.5c-3.5,2.9-10.8,3-15.1,2.6
		c-7.1-0.6-7.5-3.7-9.3-9.7c-0.6-2.2-1.5-4.3-3-5.5C271,156.2,283.1,152.7,295.5,152.6z M252.5,156.6c-5.4,3.2-2.9,11.1-8.1,14.2
		c-3.7,2.3-9.6,1.2-13.6,0.4c-9.4-1.9-11.1-9.6-13-17.3C229.4,154.6,240.9,156.2,252.5,156.6z M223.9,200.7c-8.9-12.7-5.2-28-9-42
		c1.4,5.2,3.4,10.7,7.5,13.9c4.5,3.4,10.1,2.8,15.4,2.8c4.2,0,8.6,0.6,11.3-3.3c2.2-3.2,1.1-8.3,5.8-9.7c4.5-1.4,2.7,3.9,4.3,7.4
		c1.8,4,5.4,5.2,9.6,5.8c5.7,0.8,14.1,0.4,19.2-3c5.7-3.8,3.7-13.1,9.1-16.4c0.2,10-1.5,20-5.2,30.1c-3.2,8.7-7.8,18-13.8,25.1
		c-3.1-12.7-18.3-25.4-31.3-18.3c-0.4,0-0.9,0.1-1.3,0.5c-5.9,5.5-8.8,12.2-9.7,19.8C231.3,209.6,227,205.1,223.9,200.7z
		 M223.5,229.8c1,3.3,2.6,6.4,4.4,9.3c0.1,0.2,0.1,0.4,0.1,0.5c0.2,0.6,0.5,0.9,1,1.2c2.8,4.1,6.2,7.8,9.8,11.4
		c3.4,3.4,4.5,3.3,4.4,8.4c-0.1,4.1-0.8,4.5-3,7.5c-1.5,2.2-2.9,4.3-4.1,6.6c-0.3-1.4-2.6-2.2-3.8-0.6c-1,1.3-2.3,2.1-3.8,2.6
		c-0.3,0.1-0.6,0.3-0.8,0.5c-0.7-1.5-1.4-3.1-2.1-4.6c0,0,0.1,0,0.1,0c0.8-0.6,1.6-1.1,2.4-1.7c2.1-1.4,0.1-4.9-2-3.4
		c-0.7,0.5-1.5,1-2.2,1.5c-0.8-1.7-1.6-3.4-2.4-5.1c0,0,0.1,0,0.1,0c1.2-0.8,2.3-1.7,3.5-2.5c2.1-1.5,0.1-4.9-2-3.4
		c-1.1,0.8-2.2,1.5-3.2,2.3c-0.5-1.1-1-2.3-1.4-3.4c2.3-1.1,4.2-2.8,5.3-5.2c1.1-2.3-2.3-4.3-3.4-2c-0.7,1.5-1.8,2.7-3.3,3.5
		c-0.4-1.1-0.8-2.2-1.1-3.3c0.1,0,0.1-0.1,0.2-0.1c1.2-1,2.3-2,3.5-3c1.9-1.7-0.9-4.5-2.8-2.8c-0.7,0.6-1.4,1.2-2.1,1.8
		c0-0.1,0-0.1-0.1-0.2C218.5,240.7,220.5,235,223.5,229.8z M209.3,238.7c1.5,12.5,7.6,23.1,12.6,34.7c1,2.2,1.9,4.5,2.8,6.7
		c-0.4,0-0.8,0.2-1.2,0.5c-4.6,4.2-7.3,9.4-10,14.9c-0.8,1.7-2.3,3.9-3.7,6.2c-1.7-1.3-3.4-2.3-5.4-2.6c-2.3-0.9-4.6-1.4-7.1-2.3
		c-1-0.2-2.1-0.5-3.1-0.7c-4-0.7-5.2-2.4-3.7-5c-0.1-1.9,0.2-4.1,0.6-6.3c0.5-0.6,0.5-1.2,0.3-1.7c1-4.7,2.7-9.5,3.4-13.5
		C196,262.9,201.5,244.7,209.3,238.7z M254.4,425.5c-4.7,0.8-43.9,1-47.7,0.9c-3.8,0-7.9,0.3-11.9,0.4c1.7-1.5,3.3-3.1,5.2-4.3
		c4.6-3.1,9.6-5.7,13.9-9.3c2-1.6-0.9-4.4-2.8-2.8c-4.1,3.3-8.7,5.7-13.1,8.6c-3.1,2.1-6.3,6.1-9.9,7.5c-2.7-0.5-4.2-1.9-5-3.9
		c0.4,0,0.9-0.1,1.3-0.4c8.1-6.3,14.9-14.9,24.6-19c2.3-1,1.3-4.8-1.1-3.8c-10.1,4.2-17.1,12.6-25.6,19.3c-0.1-2.4,0.2-5.1,0.3-7.5
		c0-0.9,0.1-1.7,0.1-2.6c0.2-0.1,0.4-0.2,0.7-0.4c6.6-6.8,14.7-11.4,23.1-15.7c2.3-1.2,0.3-4.6-2-3.5c-7.8,3.9-15.1,8.3-21.5,14.2
		c0.1-3.8,0.3-7.7,0.4-11.5c3.3-2,5.7-5,8.5-7.6c4.2-3.9,8.7-7.3,13.7-10c2.3-1.2,0.2-4.7-2-3.4c-4.4,2.4-8.4,5.3-12.1,8.5
		c-2.6,2.3-5,5.3-7.8,7.6c0.1-3.3,0.2-6.6,0.4-10c6.8-3.5,11.6-10.4,16.4-16c1.7-1.9-1.1-4.8-2.8-2.8c-4.1,4.7-8.1,10.5-13.3,14.1
		c0.3-3.8,0.7-7.6,1.1-11.5c2.5-0.7,4.6-2.9,6.3-4.6c2.4-2.4,4.5-5.4,7.4-7.3c2.1-1.4,0.1-4.9-2-3.4c-2.6,1.7-4.6,4.1-6.7,6.3
		c-1.2,1.3-2.7,3.2-4.4,4.4c0.4-3.5,0.8-7,1-10.5c3.6-1.6,6-4.9,9.1-7.3c2-1.5,0-5-2-3.4c-2.3,1.7-4.3,4.4-6.8,6.1
		c0.1-3.6,0.1-7.3-0.2-10.9c-0.2-2.5-4.2-2.6-4,0c1.5,17.9-2.8,36.4-3.3,54.4c0,1.7-0.1,3.5-0.2,5.3c-0.6,0.6-0.6,1.5-0.1,2.2
		c-0.7,10.2-1.8,20.9-0.4,30.6c0,0.2,0.1,0.4,0.1,0.6c-13.7-4.1-25.2-14-39.6-15.4c0.7-3.2,0.4-6.6,0.5-9.9c0.4-8.9,2-17.9,3.6-26.6
		c3.3-18.2,7.2-36.3,11-54.3c3.7-17.9,7.4-35.9,12.7-53.4c2.2-7.4,2.3-6.3,9.7-9c7.5-2.7,14.7-4.7,22.2-6.9
		c-0.4,0.7-0.7,1.4-1.1,2.1c-0.5-0.3-1.2-0.5-1.9-0.1c-5.2,2.4-10.4,7.6-16.5,7.2c-2.6-0.2-2.6,3.8,0,4c6.1,0.4,11-3.7,16.1-6.5
		c-1.3,2.8-2.4,5.6-3.3,8.6c-0.3,0-0.6,0.1-0.9,0.2c-4.7,2.2-8.9,5.4-13,8.5c-2,1.5,0,5,2,3.4c3.4-2.6,6.9-5.2,10.7-7.3
		c-0.1,0.3-0.2,0.6-0.2,1c-0.8,4.5-1.6,9-2.5,13.4c-0.1,0.1-0.2,0.1-0.3,0.2c-1.9,2-4.6,3-7.1,4.2c-2.3,1.1-0.3,4.5,2,3.4
		c1.3-0.6,2.6-1.2,3.9-1.9c-0.8,2.4-1.8,5.3-1.3,7.3c1,4.1,5.8,5.5,9.8,6.2c-3.4,2.2-6.8,4.4-10.3,6.6c-2.2,1.4-0.2,4.8,2,3.4
		c4.7-3,9.3-6,14-9c0.1-0.1,0.2-0.2,0.3-0.3c1.2,0.1,2.4,0.4,3.6,0.9c0.5,0.2,0.8,0.4,1.2,0.7c-2.7,2.9-5.9,5.1-9.7,6.3
		c-2.4,0.8-1.4,4.6,1.1,3.8c3.4-1.1,6.5-2.9,9.2-5.2c-0.1,0.4-0.1,0.9-0.1,1.4c0.1,2.9,1.6,4.1,3.7,6.2c0.1,0.1,0.2,0.2,0.4,0.4
		c-2.9,1.9-5.9,3.8-8.8,5.6c-2.2,1.4-0.2,4.8,2,3.4c3.2-2.1,6.5-4.1,9.7-6.2c4.9,4.9,9.3,9.6,13,15.9c8.3,14.2,15,30.1,19.6,45.9
		c3.7,12.7,3.3,27.3,8.4,39.6C254.5,422.3,254.5,423.9,254.4,425.5z M255.2,409.1c-1.8-9-2.3-18.7-4.7-27.3
		c-3.5-12.6-8.7-24.7-14.2-36.5c-5.4-11.3-11.5-21.3-20.7-29.8c0,0,0,0,0,0c-0.1-0.1-0.2-0.3-0.4-0.4c-5.4-5.2-3.3-7.1,0-13.7
		c3.2-6.4,5.8-12.7,11.1-17.7c5.2,12.5,10.1,25.2,16,37.4c4.8,10,8.6,20.6,11,31.4c1.4,6.4,1.8,13,2.1,19.5c0.2,6.6,0.4,13,0.4,19.4
		C255.7,397.3,255.6,403.1,255.2,409.1z M256.4,348.2c0.4-5.5-3.5-12.4-5.6-17.8c-0.2-0.6-0.4-1.1-0.6-1.6
		c-1.5-4.5-3.5-9.3-4.4-13.9c-1.9-9.6-0.3-21.9,6-29.7c0.9-1.1,7.6,11.5,8,12.6c1.3,3.7,3.1,8,3.2,11.9c0.2,3.5-1.8,7-2.5,10.5
		C258.4,329.4,257.1,338.7,256.4,348.2z M340.7,416.2c-5.9,2.2-8.9,4.2-11.3-2.3c-2.2-5.9-2.5-13.1-3.7-19.3
		c-2.5-12.7-5-25.3-6.9-38.1c-1.3-8.7-1.3-21.9-6.7-29.1c-1.5-2-5,0-3.5,2c3.9,5.2,4,14.6,5.1,21c1.4,7.8,2.2,15.7,3.7,23.6
		c2.7,14.6,5.8,29.2,8.7,43.7c-0.8,0.4-1.7,0.8-2.5,1.3c-0.3,0-0.6,0.1-0.9,0.3c-0.2,0.1-0.4,0.3-0.6,0.4
		c-20.5,5.4-42.2,5.4-63.2,5.1c-0.1-0.3-0.2-0.6-0.4-0.8c0-0.6,0-1.1,0-1.7c0.3-0.5,0.5-1.2,0.2-2c0-0.1-0.1-0.2-0.1-0.3
		c0.3-10.2,0.9-20.4,1.1-30.4c3.9-11.9,7.8-23.6,13.8-34.7c6-10.9,13.2-21.1,18.6-32.4c2.4-5,3.5-8.8,2.2-13.3
		c0.5,0.2,1.1,0.2,1.7-0.1c5.4-3,16.8-5.8,19.8-11.6c3.1-5.9,0.4-16.8-0.6-23c-1.4-8.2-4.3-18.5-8.1-26.6c4.3,0,8.7,0.4,12.9,1.2
		c8.8,1.7,10.5,6.5,12.4,14.6c3.7,15.3,10.1,29.8,14.2,45c4.6,16.9,7.7,34.2,12.1,51.1c3.6,14.2,4.7,29.6,10.7,43
		C362.1,409.5,349.3,413,340.7,416.2z"/>
	<path display="inline" fill="#414042" d="M263.9,204.1c-5-0.2-10-0.4-15,0c-2.5,0.2-2.6,4.2,0,4c5-0.4,10-0.2,15,0
		C266.5,208.2,266.5,204.2,263.9,204.1z"/>
</g>
<g id="_x37_" display="none">
	<path display="inline" fill="#414042" d="M319.3,144.6c-9.7-12-24.5-21.8-40.4-20.1c-6.8,0.7-12.5,3.5-16.5,7.9
		c-0.3,0.3-0.5,0.7-0.8,1c-39.7,39.8-79.3,79.6-119,119.3c-0.4,0.4-0.4,0.8-0.3,1.2c-1.3,0.9-2.5,1.8-3.6,2.8
		c-9.6,6.1-19,13.1-23.9,23.6c-4.8,10.5-4.2,23.2,0.9,33.5c4.9,9.9,14.3,16.8,25.1,19.1c5.3,1.1,10.9,1.2,16.2,0.1
		c4.8-0.9,9.2-4.2,14.1-2.1c3.6,1.6,5.5,5.7,7.7,8.9c2.4,3.5,4.5,7.2,6.5,11c3.8,7.5,6.8,15.5,8.7,23.7c1.9,8.2,2.9,16.7,2.8,25.2
		c0,4.3-0.4,8.5-0.9,12.8c-0.4,2.9-3.1,8.2,1.6,7.8c4.2-0.3,8.6-2,13-2.4c9.1-0.8,18.9-1.2,26.5-6.9c2.1-1.6,4.3-3.8,5.3-6.3
		c1.2-3.2,2.5-5.8,4.5-8.4c3.6-4.8,7.3-9.7,8.8-14.4c2.3-7.2-0.9-15.6-3.5-22.4l-0.3-0.9c-6.6-17.6-16.6-39-35.1-50.3
		c33.2-11.5,67.2-20.3,101.9-26.2c4.1-0.7,8.7-0.1,12.6-1.5c17.2-6.2,22-29.8,21.2-46c-1-22.1-9-43.5-15.9-59.6
		C331.8,164.6,326.7,153.8,319.3,144.6z M291,263.4c4.6,6,11.4,13.7,20.1,17.1c-1.6-0.6-6.4,1.2-8.1,1.5c-2.7,0.5-5.4,1.1-8.1,1.6
		c-5.6,1.2-11.1,2.4-16.7,3.7c-19.1,4.5-38,9.9-56.6,16.1c-9.3,3.1-18.5,6.4-27.7,10c-4.3,1.7-9.5,3-13.5,5.4
		c-2.7,1.6-6,4.1-9.2,1.6c5.7-2.2,11.2-4.8,16.9-7.1c25.6-10.6,51.8-21,78.9-27.2c0.8-0.2,1.3-1,1.1-1.8c-0.2-0.8-1-1.3-1.8-1.1
		c-38.3,8.8-96.8,34.8-97.4,35.1c-0.3,0.1-0.5,0.3-0.6,0.6c-1.3-0.7-2.5-1.5-3.7-2.3c4.9-2.7,38.9-20.7,84.4-32.4
		c0.8-0.2,1.3-1,1.1-1.8c-0.2-0.8-1-1.2-1.8-1c-49.4,12.7-85.4,32.8-85.8,33c-0.2,0.1-0.3,0.2-0.4,0.3c-1.2-1-2.4-2.1-3.6-3.2
		c4.6-2,37-16.3,55.8-21.8c0.8-0.2,1.2-1,1-1.8c-0.2-0.8-1-1.2-1.8-1c-20.3,5.9-56.4,22-56.7,22.2c-0.1,0.1-0.3,0.2-0.4,0.3
		c-13.9-15.1-17.9-37.7-8.1-57.7c0.1-0.3,0.1-0.5,0.1-0.7c36.2-36.3,72.3-72.5,108.5-108.8c-1.8,5.6-2.1,11.7-2,17
		C255.2,196.7,268,233.7,291,263.4z M140.5,258.9c0.8-0.5,1.6-1,2.3-1.4c-8.3,24.7,2,51.6,24.7,64.4c-12.3-3.3-23.1-12.3-28.4-23.9
		c-0.3-0.7-1.2-1.1-1.9-0.7c-0.7,0.3-1.1,1.2-0.7,1.9c5.6,12.3,17,21.8,29.9,25.4c-16,0.6-32-8.7-37.6-24.3
		C123.6,285.6,129,268.9,140.5,258.9z M116.7,309c-3.8-10.5-3.1-22.4,3.1-31.9c3-4.5,6.8-8.3,11.1-11.6c-6.8,10.4-9.1,23.8-4.7,35.9
		c4.9,13.7,17.6,23.1,31.6,25.5c-4.8,0.5-9.7,0.1-14.3-1.3c-7.1-2.2-13.5-6.6-18-12.5c-0.5-0.6-1.4-0.8-2.1-0.3
		c-0.6,0.5-0.8,1.4-0.3,2.1c4.9,6.4,11.8,11.2,19.5,13.6c4.8,1.5,9.9,1.9,14.9,1.4C141.1,333.7,123,326.2,116.7,309z M172.9,326.8
		c-0.1-1.9,2.4-0.7,3-3c6.1,5.7,11.2,12.6,14.9,20.1c0.3,0.6,0.9,0.9,1.5,0.8c0.2,0,0.3-0.1,0.5-0.1c0.7-0.3,1-1.2,0.7-2
		c-3.6-7.4-8.6-14.3-14.5-20.1c1.1-0.5,2.2-0.9,3.3-1.4c0.1,0.2,0.2,0.4,0.4,0.5c4.4,3.7,7.8,8.5,10,13.8c0.3,0.6,0.9,1,1.5,0.9
		c0.1,0,0.3,0,0.4-0.1c0.7-0.3,1.1-1.2,0.8-1.9c-2.3-5.5-5.9-10.5-10.3-14.4c3.8-1.5,7.5-3,11.3-4.4c0.1,0.1,0.2,0.3,0.4,0.3
		c8.7,4.6,16.4,12.8,22.2,23.7c5.3,9.9,8.5,20.8,11.7,31.4c2.5,8.3,4.5,16.3,1.7,23.3c-2.2,5.6-7.6,10.2-14.7,12.6
		c-6,2.1-12.5,2.5-18.9,2.7c1.4-0.1,0.1-21.3-0.1-23.3c-0.9-7.8-2.6-15.6-5.2-23.1c-2.6-7.5-6-14.7-10.1-21.4
		c-2.1-3.4-4.3-6.7-6.8-9.8c-1-1.3-3-2.6-3.5-4.2C173,327.5,173,327.1,172.9,326.8z M229.9,411.5c-10.1,4.3-21.5,2.8-32,5.5
		c0.3-1.4,0.4-2.9,0.6-4.3c3-0.1,6.1-0.3,9.2-0.6c3.7-0.4,7.4-1.1,11-2.3c7.9-2.7,13.9-7.9,16.5-14.3c3.1-7.8,1-16.4-1.6-25.2
		c-3.2-10.7-6.5-21.8-11.9-32c-5.7-10.8-13.2-19-21.8-24c0.8-0.3,1.5-0.6,2.3-0.9c0.1,0.3,0.3,0.5,0.6,0.6
		c23.2,11.6,33,36.7,36.8,60.9c1.4,9.3,4.1,21.7-1.7,30.1C236,408,233.1,410.1,229.9,411.5z M249.1,360.5c2.4,6.4,5.4,14.3,3.4,20.5
		c-0.9,2.8-2.8,5.8-4.9,8.8c1.5-9.9,0.6-20.2-2.8-29.7c-0.3-0.8-1.1-1.2-1.9-0.9c-0.8,0.3-1.2,1.1-0.9,1.9
		c3.4,9.4,4.2,19.8,2.4,29.6c-0.2-4.5-0.9-9.2-1.5-13.4c-1.4-10.2-3.9-20.6-7.7-30.2c0.1,0,0.2,0,0.3,0c1.3-0.1,2.6-0.7,3.7-1.5
		c1.1-0.8,1.8-1.9,2.3-3.1c2.9,5.8,5.2,11.6,7.3,17L249.1,360.5z M212.8,309.6c12.1,6.6,20.5,17.8,26.8,29.5
		c-0.4,0.3-0.6,0.7-0.6,1.2c0,1.1-0.6,2.3-1.6,3.1c-1,0.8-2.3,1.1-3.4,0.8c0,0,0,0,0,0c-5.9-13.3-15-24.9-28.5-32.1
		C207.9,311.3,210.3,310.5,212.8,309.6C212.8,309.6,212.8,309.6,212.8,309.6z M321.4,279.2c-0.3-0.3-0.7-0.5-1.2-0.4
		c-0.7,0.1-1.4,0.3-2.1,0.4c0,0-0.1,0-0.1,0c-10.9-1.2-19.3-10.6-24.7-17.6c-22.5-29.2-35.1-65.6-35.4-102.5
		c-0.1-7.7,0.6-17.2,5.9-23.8c1-1,2-2.1,3.1-3.1c0,0,0,0,0,0c4-3.2,8.8-4.4,12.3-4.7c1-0.1,2.1-0.2,3.2-0.2
		c-11.4,10.2-11.9,29-11,40c0.3,3.7,0.7,7.3,1.2,10.9c-0.6,0.5-0.7,1.3-0.3,2c0.2,0.2,0.4,0.4,0.6,0.5c4.4,28.3,15.3,55.2,32,78.6
		c3.7,5.2,7.9,10.5,13.6,14.1c3.6,2.3,7.7,3.4,11.5,3.6C327.3,278.2,324.4,279.1,321.4,279.2z M288,176.5c0.3,0.3,0.7,0.5,1.1,0.4
		c0,0,0.1,0,0.1,0c0.3,0,0.6-0.2,0.8-0.4c5.2,0.4,10.3,2.2,14.4,5.5c8.2,6.6,12.2,18.3,10,29.2c-1.4,6.5-4.9,12.6-9.9,17.4
		c-0.3,0-0.5,0-0.7,0.2c-0.4,0.2-0.7,0.7-0.7,1.1c-1.4,1.3-3,2.4-4.6,3.5c-0.3,0-0.5,0-0.8,0.1c-0.3,0.2-0.5,0.4-0.7,0.7
		c-0.8,0.5-1.7,1-2.6,1.4c-0.1,0-0.1,0.1-0.2,0.2c-9.1-17.6-15.3-36.5-18.3-56.1C279.4,177.6,283.6,176.5,288,176.5z M349.2,234.8
		c0.6,12.6-1.4,22.4-6.1,30.3c-1.9,3.1-4.3,5.8-7,8.1c-4.7,1.8-10.7,0.9-16-2.3c-5.3-3.2-9.3-8.3-12.8-13.3
		c-4.4-6.2-8.3-12.6-11.9-19.2c0,0,0.1,0,0.1,0c0.8-0.3,1.5-0.8,2.2-1.2c7.7,14.9,17.7,24.4,29.7,28.3c0.2,0.1,0.4,0.1,0.6,0.1
		c0.6-0.1,1.1-0.4,1.2-1c0.3-0.8-0.2-1.6-0.9-1.8c-11.3-3.6-20.7-12.8-28.1-27c1.4-0.9,2.7-1.9,4-2.9c6.6,11.2,14,17.8,22.5,20.2
		c0.2,0,0.4,0.1,0.5,0c0.6-0.1,1.1-0.5,1.3-1.1c0.2-0.8-0.2-1.6-1-1.8c-7.8-2.1-14.7-8.5-21-19.3c1.4-1.3,2.6-2.8,3.8-4.3
		c3.7,5.9,8.1,11.4,13.1,16.2c0.3,0.3,0.8,0.4,1.2,0.4c0.3,0,0.6-0.2,0.9-0.4c0.6-0.6,0.5-1.5,0-2.1c-5-4.9-9.5-10.5-13.3-16.6
		c2.4-3.7,4.2-7.8,5.1-12.1c2.5-11.9-1.9-24.8-11-32.1c-2.2-1.8-4.7-3.2-7.3-4.2c0-1.5,0-2.2,0.2-3.3c0.1-0.6,0.1-1.3,0.2-2.2
		c0.1-0.8-0.5-1.5-1.3-1.6c-0.8-0.1-1.5,0.5-1.6,1.3c-0.1,0.9-0.2,1.6-0.2,2.2c-0.1,0.9-0.2,1.6-0.2,2.7c-1.8-0.5-3.6-0.8-5.5-0.9
		c-0.2-6.4,0.2-12.7,1.2-18.9c0.1-0.8-0.4-1.5-1.2-1.7c-0.8-0.1-1.5,0.4-1.7,1.2c-1,6.3-1.4,12.8-1.2,19.3c-2.3,0-4.7,0.3-6.9,0.9
		c-0.9-9.3-0.5-22.5,6.1-34.2c0.4-0.7,0.1-1.6-0.6-2c-0.7-0.4-1.6-0.1-2,0.6c-5.6,10.1-7.8,22.7-6.4,36.6c-0.8,0.3-1.6,0.7-2.4,1.1
		c-0.4-3.1-0.8-6.3-1.1-9.5c-0.9-11.2-0.4-30.9,12.5-39.5c1,0.1,1.9,0.3,2.9,0.5c9.9,2.2,19.6,8.8,27.3,18.4
		c7.2,8.9,12.2,19.6,16.5,29.7C340.8,193.1,348.3,213.3,349.2,234.8z"/>
	<path display="inline" fill="#414042" d="M251.3,165.1c0-0.8-0.6-1.5-1.4-1.5c-0.8,0-1.5,0.6-1.5,1.4
		c-1.8,35.5,10.3,71.5,33.2,98.8c0.3,0.4,0.8,0.6,1.3,0.5c0.3,0,0.6-0.1,0.8-0.3c0.6-0.5,0.7-1.4,0.2-2.1
		C261.4,235.1,249.6,199.9,251.3,165.1z"/>
	<path display="inline" fill="#414042" d="M302.6,139.8c-0.6,0.5-0.6,1.5-0.1,2.1c21.8,23.3,35.6,53.7,39,85.5
		c0.1,0.8,0.8,1.4,1.6,1.3h0c0.8-0.1,1.4-0.8,1.3-1.6c-3.4-32.4-17.6-63.3-39.8-87.2C304.1,139.3,303.2,139.3,302.6,139.8z"/>
	<path display="inline" fill="#414042" d="M322.4,119.5l9.4,4.5c0.2,0.1,0.5,0.2,0.8,0.1c0.2,0,0.3-0.1,0.5-0.1
		c0.4-0.2,0.7-0.5,0.8-1c1.3-5.2,3.9-9.9,6.4-14.5c2.5-4.8,5.2-9.7,6.6-15.2c0.2-0.6-0.1-1.3-0.7-1.7l-12.6-6.9
		c-0.4-0.2-0.9-0.2-1.3-0.1c-0.4,0.2-0.7,0.5-0.8,0.9l-9.8,32.2C321.4,118.4,321.7,119.2,322.4,119.5z M333.6,88.2l10,5.5
		c-1.4,4.7-3.8,9.1-6.1,13.4c-2.3,4.3-4.6,8.7-6.1,13.5l-6.6-3.2L333.6,88.2z"/>
	<path display="inline" fill="#414042" d="M376.2,147c0.4-1-0.1-2-0.3-2.4l-9.3-18.6c-0.2-0.4-0.5-0.7-1-0.8c-0.4-0.1-0.9,0-1.2,0.2
		c-9.2,6.5-17.8,14-25.6,22.1c-0.3,0.3-0.5,0.8-0.4,1.3c0.1,0.5,0.4,0.8,0.8,1.1c0.9,0.4,1.3,1.8,1.7,3.2c0.6,1.8,1.3,4.1,3.5,5
		c0.7,0.3,1.5,0.4,2.3,0.3c0.9-0.1,1.7-0.4,2.5-0.7l25-9C374.7,148.4,375.8,148,376.2,147z M373.2,145.8l-25,9
		c-0.6,0.2-1.3,0.4-1.9,0.5c-0.4,0-0.7,0-0.9-0.1c-0.8-0.3-1.2-1.4-1.7-3.1c-0.4-1.3-0.8-2.7-1.7-3.7c7-7.2,14.6-13.8,22.7-19.6
		L373.2,145.8L373.2,145.8z"/>
	<path display="inline" fill="#414042" d="M371.1,194c1.2-0.1,2.4-0.4,3.6-0.6c1-0.2,1.9-0.3,2.6-0.4l0.5,0
		c5.8-0.3,11.6-0.2,17.3,0.4c0.1,0,0.2,0,0.3,0c0.7-0.1,1.2-0.6,1.3-1.3c0-0.2,0-0.4-0.1-0.6c-0.3-1.1-4.4-17.4-4.7-18.7
		c-0.3-1.3-1.5-1.9-3.7-1.6c-6.7,0.7-25.8,8.6-27.8,9.6c-0.4,0.2-0.6,0.5-0.7,0.9c-0.1,0.4,0,0.8,0.2,1.2c0.6,0.9,1,2.3,1.5,3.8
		c0.7,2.4,1.5,4.9,3.2,6.3C366.5,194.3,369.2,194.2,371.1,194z M388.6,173.9c0.3,0,0.5,0,0.6,0c0.5,2.5,2.4,11.5,4.1,16.3
		c-5.2-0.4-10.4-0.5-15.6-0.2c-0.2,0-0.4,0-0.6,0c-0.8,0.1-1.8,0.3-2.9,0.5c-1.1,0.2-2.2,0.4-3.4,0.5c-2.1,0.2-3.6,0-4.4-0.6
		c-1-0.8-1.7-2.9-2.3-4.9c-0.3-1-0.6-2-1-3C368,180.5,383.1,174.5,388.6,173.9z"/>
	<path display="inline" fill="#414042" d="M399,225.6c-9.9,0.2-19.9-0.4-29.7-1.6c-0.4,0-0.8,0.1-1.1,0.3c-0.3,0.2-0.5,0.6-0.5,1
		c-0.2,3.5-0.2,7,0.2,10.5c0,0.5,0.4,1,0.9,1.2l29.8,13.2c0.2,0.1,0.5,0.1,0.8,0.1c0.2,0,0.5-0.1,0.7-0.3c0.4-0.3,0.7-0.8,0.6-1.3
		c-0.7-7.2-0.8-14.4-0.1-21.6c0-0.4-0.1-0.8-0.4-1.1C399.8,225.7,399.4,225.6,399,225.6z M397.5,246.6l-26.8-11.9
		c-0.2-2.5-0.3-5.1-0.2-7.6c8.9,1,17.9,1.5,26.9,1.4C397,234.5,397,240.6,397.5,246.6z"/>
</g>
<g id="_x38_" display="none">
	<path display="inline" fill="#414042" d="M206,145.1c-35.9,21.8-49.9,67.7-32.6,106.6c3.9,8.8,10.1,16.4,16,23.7
		c7.4,9.1,14.4,17.8,17.6,28.8c1.9,6.5,3.1,13,4.3,19.2c2.7,13.9,5.2,27.1,14.5,39.5c-0.2,0.2-0.3,0.4-0.4,0.7
		c-0.3,0.6-0.3,1.3-0.2,1.9c-0.8,1-1.3,2.2-1.4,3.5c-0.3,2.6,0.7,5.3,2.5,7.2c-1.9,3.8,0,8.5,3.1,10.9c0.1,0.1,0.3,0.2,0.5,0.3
		c-2.7,4.6-1.1,10.8,2.4,14.2c1.4,1.4,3.1,2.4,5,3.3c-0.8,3.6,1.2,7.6,3.9,9.9c2.7,2.3,6.2,3.5,9.7,3.5c2,0,4-0.4,5.8-1.2
		c5.1-2.2,8.7-7.4,9-12.9c0-0.5-0.2-0.9-0.5-1.3c0.5,0.6,5.1-4,5.5-4.6c1.2-1.7,2.1-4.2,2.4-6.3c0.1-0.6-0.8-5.9-1-5.8
		c0,0,0.1-0.1,0.1-0.1c3.8-3.4,6.3-9.6,3.8-14.9c-0.1-0.3-0.3-0.5-0.6-0.7c1-2.7,1.1-5.7-0.4-8.3c-0.5-0.8-1.5-1.1-2.3-0.6
		c9-11.6,11.5-26.2,14-40.4c0.7-3.8,1.3-7.6,2.1-11.3c1.9-9.2,4.9-19.7,11.8-28.1c1.6-2,3.2-3.8,4.8-5.7c5.1-6,9.9-11.6,13.8-18.8
		c14.7-27.3,20-67.5-1.6-95.6C291.1,127.3,238.5,125.3,206,145.1z M235.7,239.3c3.8,3.5,8.8,5.6,14,5.5c4.8,0,9.4-1.8,13.3-4.7
		c1.2,1.9,2.7,3.6,4.5,5c2.6,2.1,5.7,3.7,9,4.5c-0.7,2-1.2,4-1.7,5.8c-9.7,36.3-19.8,73.7-21.1,112.1c-0.7,0.1-1.4,0.2-2.1,0.2
		c-2.2,0-4.4-0.1-6.6-0.3c-5.1-39.9-14.7-77.9-28.4-113.2c2-0.4,4-1.1,6-2.1C228.1,249.3,232.5,244.5,235.7,239.3z M235,233.4
		c-0.7-1.1-1.4-2.3-1.8-3.5c-2.1-5.6-1.9-7.3-1.6-7.7c0.4-0.8,1.3-1.4,2.5-1.5c0.2,0,0.4-0.1,0.7-0.1c0.9,0,1.7,0.3,2.1,0.8
		c1.4,1.4,1,4.1,0.4,6.2C236.6,229.5,235.9,231.5,235,233.4z M263.1,221.9c0.6-2.2,2.2-4.5,3.9-4.5c0.1,0,0.2,0,0.3,0
		c0.6,0.1,1.1,0.4,1.4,0.9c0.8,1.2,1.2,3.5,0.8,5.5c-0.8,4.1-2.8,7.9-5.6,10.9C262.3,230.7,262,226.1,263.1,221.9z M250.7,371.1
		c0.3,0,0.6,0,1,0c8.1-0.1,15.3-2.1,21-5.6c0,0.1,0.1,0.3,0.1,0.4c-5.6,4.1-12.6,6.6-19.5,7c-0.9,0.1-1.7,0.8-1.6,1.8
		c0.1,0.9,0.8,1.6,1.7,1.6c0,0,0.1,0,0.1,0c6.4-0.3,12.7-2.3,18.3-5.6c-0.5,0.9-1.2,1.7-1.9,2.4c-3,2.5-7.1,3.3-10.8,3.8
		c-7,1-14.1,1-21.1,0.2c-3.2-0.4-6.8-1.1-9.1-3.3c-1.1-1.1-1.7-2.9-1.6-4.5c0-0.4,0.1-0.8,0.3-1.2c0.7,0.3,1.5,0.5,2,0.6
		C236.3,369.9,243.5,371.1,250.7,371.1z M255.2,413.9c-3.9,1.7-8.7,1-12-1.8c-1.7-1.5-3.1-3.9-2.8-6.1c1.9,0.5,3.9,0.9,6.1,1
		c0.6,0,1.1,0,1.7,0c4,0,8-0.6,11.8-1.9c0.8-0.2,1.5-0.5,2.2-0.8C261.8,408.4,259.1,412.3,255.2,413.9z M269.3,393.1
		c-5.6,2.7-11.9,3.7-18,2.8c-0.9-0.1-1.8,0.5-1.9,1.4c-0.1,0.9,0.5,1.8,1.4,1.9c1.6,0.2,3.3,0.4,5,0.4c3.6,0,7.1-0.6,10.5-1.7
		c-1.8,1.6-4.3,3-7.4,4c-4,1.3-8.1,1.8-12.3,1.7c-3.7-0.2-8.8-1.1-12.1-4.4c-2.5-2.5-3.7-7.1-1.8-10.2c2.4,1,4.9,1.4,7.4,1.7
		c4.1,0.5,8.3,1,12.7,1c1.7,0,3.4-0.1,5.1-0.2c4.4-0.4,8.2-1.5,11.2-3.2C269.7,389.7,269.8,391.4,269.3,393.1z M273.5,376.5
		c-0.3,0-0.7,0.1-1,0.4c-5.9,5-14,7.3-21.6,6.3c-0.9-0.1-1.8,0.5-1.9,1.4c-0.1,0.9,0.5,1.8,1.5,1.9c1.3,0.2,2.7,0.3,4,0.3
		c5.9,0,11.9-1.8,16.9-4.9c-0.5,0.6-1,1.3-1.5,1.7c-2.8,2.5-6.9,4-12.2,4.5c-5.8,0.5-11.6-0.1-17-0.8c-3.5-0.5-6.8-1-9.2-3
		c-1.8-1.4-3-4-2.4-6.1c2.6,1.4,5.6,2,8.4,2.3c3.4,0.4,6.8,0.6,10.2,0.6c3.9,0,7.9-0.3,11.8-0.8c4.2-0.6,8.9-1.5,12.6-4.6
		c0.6-0.5,1.1-1,1.5-1.6C273.5,374.9,273.6,375.7,273.5,376.5z M316.1,255.8c-3.7,6.8-8.4,12.3-13.4,18.2c-1.6,1.9-3.2,3.8-4.8,5.7
		c-7.4,9-10.4,20-12.5,29.6c-0.8,3.8-1.5,7.6-2.2,11.4c-2.8,16.1-5.7,32.8-18.3,44.3c-0.2,0.2-0.3,0.3-0.4,0.5
		c-2.4,0.8-4.9,1.5-7.6,1.8c1.3-37.8,11.3-75,21-110.9c0.6-2.1,1.2-4.2,1.8-6.1c4.4,0.5,8.9-0.2,12.9-2.2c4.4-2.2,7.8-7.1,5.8-11.3
		c-0.8-1.7-2.4-2.9-4.4-3.4c-2.9-0.6-6.6,0.3-9.2,2.4c-3.5,2.8-5.7,6.7-7.3,10.6c-2.9-0.7-5.7-2-8-3.9c-1.6-1.3-3-2.9-4-4.7
		c3.6-3.6,6.3-8.3,7.3-13.4c0.4-2.4,0.3-5.7-1.3-8.1c-0.9-1.3-2.2-2.1-3.7-2.3c-4-0.6-6.9,3.1-8,6.9c-1.5,5.3-0.8,11.2,1.5,16.2
		c-3.4,2.6-7.5,4.3-11.7,4.3c0,0-0.1,0-0.1,0c-4.4,0-8.9-2-12.2-5.2c1.3-2.7,2.4-5.3,3.1-7.8c1.2-4.2,0.8-7.4-1.2-9.5
		c-1.4-1.4-3.5-2.1-5.8-1.7c-2.2,0.3-4.1,1.6-5,3.4c-1.3,2.5,0.1,6.7,1.5,10.4c0.8,2.1,1.9,4,3.2,5.7c-3.2,5.5-7.6,10-12.3,12.4
		c-1.9,1-3.8,1.6-5.7,1.9c-0.6-1.6-1.3-3.2-1.9-4.8c-1.4-3.4-2.8-6.3-5.2-8.6c-3-2.8-5.3-2.7-6.6-2.1c-1.9,0.8-3.1,3-3.2,6
		c-0.1,4,1.8,9.1,6.3,11.3c2.5,1.3,5.5,1.9,8.4,1.8c13.8,35,23.3,72.8,28.5,112.4c-3.1-0.4-6.1-0.9-9.1-1.4
		c-0.1-0.2-0.2-0.5-0.4-0.7c-11.7-13-14.5-27.3-17.4-42.4c-1.2-6.3-2.5-12.8-4.4-19.5c-3.4-11.7-10.9-21-18.2-30
		c-5.8-7.1-11.8-14.5-15.5-22.9c-16.6-37.4-3.2-81.4,31.3-102.3c31.3-19,81.8-17.1,107.1,15.9C335.5,190.8,330.4,229.4,316.1,255.8z
		 M281.1,247c1.4-3.4,3.3-6.3,6-8.5c1.8-1.4,4.4-2.2,6.3-1.7c1,0.2,1.7,0.7,2.1,1.5c1.2,2.4-1.7,5.5-4.2,6.8
		C288.1,246.6,284.5,247.2,281.1,247z M211.6,251.3c-2-0.1-3.9-0.6-5.6-1.4c-3.2-1.6-4.5-5.3-4.4-8.2c0-1.7,0.6-2.7,1.1-3
		c0.1,0,0.2-0.1,0.3-0.1c0.5,0,1.5,0.4,2.7,1.5c2,1.8,3.2,4.4,4.4,7.4C210.7,248.9,211.1,250.1,211.6,251.3z"/>
	<path display="inline" fill="#414042" d="M207.1,162.6c-4.8,0.5-8.3,4.4-10.8,7.7c-10.9,14.3-17.3,32.1-18,50.1
		c0,0.8,0.5,1.6,1.4,1.7l9.7,1.9c0.1,0,0.2,0,0.3,0c0.4,0,0.7-0.1,1-0.3c0.4-0.3,0.6-0.7,0.7-1.2c2.3-20.2,12.9-39,28.9-51.6
		c0.4-0.3,0.6-0.8,0.7-1.3c0-0.5-0.2-1-0.6-1.3C216.4,165.2,212.1,162.1,207.1,162.6z M188.2,220.4l-6.4-1.3
		c1-16.8,7-33.4,17.2-46.8c2.1-2.8,5-6,8.5-6.4c3.2-0.4,6.1,1.5,9,3.7C201.1,182.4,190.9,200.7,188.2,220.4z"/>
	<path display="inline" fill="#414042" d="M152.9,215.3c-2.9-0.6-5.8-1.7-8.8-2.9c-4.6-1.8-9.3-3.6-14.4-3.6c-1.5,0-2.9,0.2-4.3,0.5
		c-3.2,0.7-7.4,3.5-8.8,7.4c-0.9,2.4-0.5,4.8,1,6.8c1.4,1.9,3.8,3,6.6,3.1c0,0,0.3,0,0.4,0c2.2,0,4.2-0.6,6-1.1
		c7-1.7,12.8-3.4,17.9-5.2c1.6-0.6,3.2-1.1,4.8-1.7c0.7-0.3,1.2-1,1.1-1.7C154.2,216.1,153.7,215.5,152.9,215.3z M129.6,222.2
		c-1.6,0.5-3.4,1-5.1,1v1.7l-0.3-1.7c-1.7-0.1-3.2-0.7-3.9-1.7c-0.9-1.1-1-2.3-0.5-3.6c0.9-2.5,4-4.7,6.4-5.2
		c1.2-0.3,2.4-0.4,3.6-0.4c4.4,0,8.7,1.6,13.1,3.4c1.4,0.5,2.8,1.1,4.2,1.6C142.1,218.9,136.4,220.5,129.6,222.2z"/>
	<path display="inline" fill="#414042" d="M180.6,151.2c0.5,0,1-0.2,1.3-0.6c0.5-0.6,0.5-1.6,0-2.2l-14.8-17c-1.9-2.2-4.2-4.8-7.5-6
		c-0.9-0.3-1.8-0.5-2.8-0.5c-3.2,0-5.9,1.7-6.8,4.3c-1.1,3.2,0.8,6.5,3,8.3c1.9,1.4,4,2.1,6.1,2.8l1,0.4c6.9,2.4,13.4,6.4,19.6,10.3
		C180,151.1,180.3,151.2,180.6,151.2z M161.3,137.4l-1.1-0.4c-1.9-0.6-3.7-1.2-5.1-2.3c-1.3-1-2.4-2.9-1.9-4.4c0.5-1.4,2.2-2,3.6-2
		c0.6,0,1.1,0.1,1.6,0.3c2.4,0.8,4.3,3,6,5l7.7,8.9C168.8,140.5,165.1,138.8,161.3,137.4z"/>
	<path display="inline" fill="#414042" d="M223.7,127.3c0.3,0.5,0.8,0.7,1.4,0.7c0.2,0,0.3,0,0.5-0.1c0.7-0.2,1.2-0.8,1.2-1.5
		c0.7-9.7-2.4-25.5-8.6-34.2c-1.6-2.3-4.3-3.6-6.8-3.1c-2.7,0.5-3.8,2.1-4.3,3.4c-2.1,5.3,2.9,15.9,15.7,33.5L223.7,127.3z
		 M210.3,93.8c0.2-0.5,0.5-1.1,1.8-1.3c0.2,0,0.3,0,0.4,0c1,0,2.2,0.7,2.9,1.8c4.8,6.7,7.6,18,8,26.9
		C210.1,102.4,209.4,96,210.3,93.8z"/>
	<path display="inline" fill="#414042" d="M274.2,127.6c0.1,0,0.1,0,0.2,0c0.6,0,1.2-0.3,1.5-0.9c5-9.6,10.6-20.5,12.1-32.2
		c0.3-1.9,0.4-4-0.3-6c-0.9-2.5-3-4.2-5.2-4.4c0,0-0.3,0-0.4,0c-2.3,0-4.4,1.5-6.3,4.3c-7.7,11.7-6.8,23.6-3.1,37.9
		C272.9,127.1,273.4,127.6,274.2,127.6z M278.6,90.3c0.7-1,2-2.8,3.6-2.8l0,0c1,0.1,1.9,1.1,2.3,2.1c0.4,1.3,0.3,2.9,0.1,4.4
		c-1.3,9.5-5.3,18.4-9.7,27C272.4,109.6,272.5,99.8,278.6,90.3z"/>
	<path display="inline" fill="#414042" d="M323.1,105.9c-6.1,2-10.2,7.7-12.6,17.6c-1.2,4.9-1.8,9.9-2.3,14.3
		c-0.2,1.6-0.4,3.1-0.6,4.4c-0.1,0.9,0.5,1.8,1.5,1.9c0.1,0,0.2,0,0.2,0c0.8,0,1.6-0.6,1.7-1.5l0,0c0.2-1.4,3.6-4.5,5.7-6.3
		c1.8-1.6,3.3-3,4.2-4.2c2-2.8,4.2-5.5,6.3-8.2c1.1-1.4,2.2-2.7,3.3-4.1c1.9-2.5,3.8-5.4,3.1-8.7C332.7,106.4,327,104.6,323.1,105.9
		z M327.8,117.7c-1.1,1.4-2.2,2.7-3.2,4.1c-2.1,2.7-4.4,5.5-6.4,8.3c-0.6,0.9-2.2,2.3-3.7,3.7c-1,0.9-1.9,1.7-2.6,2.4
		c0.5-3.8,1-7.9,2-11.9c2.1-8.6,5.5-13.6,10.3-15.1c0.5-0.2,1-0.2,1.6-0.2c1.9,0,4.2,1,4.6,2.9S329.4,115.7,327.8,117.7z"/>
	<path display="inline" fill="#414042" d="M380.6,172.5c-0.9-1.7-2.5-3.2-4.8-4.4c-2.6-1.1-5.2-1.7-7.8-1.7c-9.7,0-17,7.9-23.5,14.8
		c-0.9,0.9-1.7,1.8-2.5,2.7c-0.6,0.7-0.6,1.7,0.1,2.4c0.3,0.3,0.7,0.5,1.2,0.5c0.2,0,0.4,0,0.6-0.1c0.8-0.2,4.8-0.6,7.4-0.9
		c2.5-0.3,4.8-0.5,5.4-0.7l17.7-3.2c1.6-0.3,4-0.7,5.6-2.5C381.5,177.6,381.7,174.8,380.6,172.5z M377.3,177.2
		c-0.7,0.8-2,1.1-3.6,1.4l-17.7,3.2c-0.6,0.1-2.8,0.3-5.2,0.6c-1.2,0.1-2.2,0.3-3.1,0.4c5.8-6.2,12.4-12.9,20.3-12.9
		c2.1,0,4.3,0.5,6.4,1.4c1.1,0.5,2.5,1.4,3.1,2.8C378.1,175.1,378,176.4,377.3,177.2z"/>
	<path display="inline" fill="#414042" d="M350.8,221.7c-2.8,0-5.4,0.1-7.7,0.2c-0.7,0-1.3,0.5-1.5,1.1c-0.2,0.6-0.1,1.4,0.4,1.8
		c2.8,2.6,6,5.1,9.1,7.4c1.4,1,2.7,2.1,4,3.1c3.8,3,7.9,5.8,12.4,5.8c2.1,0,4.1-0.7,5.9-2c2.7-2,3.4-4,3.5-5.4
		c0.1-1.3-0.2-3.2-2.2-5.3C368.7,222.4,358.2,221.7,350.8,221.7z M371.4,236.4c-1.2,0.9-2.5,1.3-3.9,1.3c-3.4,0-7.1-2.6-10.3-5.1
		c-1.3-1.1-2.7-2.1-4.1-3.1c-1.9-1.4-3.8-2.9-5.6-4.4c1.1,0,2.2,0,3.3,0c10.7,0,17.7,1.9,21.5,5.8c0.9,0.9,1.3,1.8,1.3,2.7
		C373.4,234.7,372.3,235.8,371.4,236.4z"/>
	<path display="inline" fill="#414042" d="M301.6,171.1c-0.2-0.9-1.2-1.4-2.1-1.2l-16.9,4.5c-0.9,0.2-1.4,1.2-1.2,2.1
		c0.2,0.8,0.9,1.3,1.6,1.3c0.1,0,0.3,0,0.4-0.1l16.9-4.5C301.3,173,301.8,172,301.6,171.1z"/>
	<path display="inline" fill="#414042" d="M303.8,177.2c-0.5-0.8-1.6-1-2.4-0.4c-4.5,3.2-9.8,5.1-15.3,5.6c-0.9,0.1-1.6,0.9-1.5,1.9
		c0.1,0.9,0.8,1.5,1.7,1.5c0.1,0,0.1,0,0.2,0c6.1-0.6,11.9-2.7,16.9-6.2C304.2,179,304.4,178,303.8,177.2z"/>
	<path display="inline" fill="#414042" d="M313.2,185c-0.5-0.8-1.5-1.1-2.3-0.6c-6.8,3.9-14.4,6.1-22.2,6.6
		c-0.9,0.1-1.6,0.9-1.6,1.8c0.1,0.9,0.8,1.6,1.7,1.6c0,0,0.1,0,0.1,0c8.3-0.5,16.4-3,23.6-7.1C313.4,186.8,313.7,185.8,313.2,185z"
		/>
	<path display="inline" fill="#414042" d="M311.6,198.6c-0.5-0.8-1.5-1.1-2.3-0.7c-4.7,2.6-10,4-15.3,4c-0.9,0-1.7,0.8-1.7,1.7
		c0,0.9,0.8,1.7,1.7,1.7h0c5.9,0,11.8-1.6,16.9-4.5C311.7,200.4,312,199.4,311.6,198.6z"/>
	<path display="inline" fill="#414042" d="M311.6,205.7c-2.5,2-5.8,3.1-9.1,3c-0.9-0.1-1.7,0.7-1.8,1.6c0,0.9,0.7,1.7,1.6,1.8
		c0.2,0,0.4,0,0.6,0c3.9,0,7.7-1.4,10.7-3.8c0.7-0.6,0.8-1.7,0.3-2.4C313.4,205.2,312.3,205.1,311.6,205.7z"/>
</g>
<g id="_x39_" display="none">
	<g display="inline">
		<path fill="#414042" d="M198.4,193.6l-25.5-3.2c-0.7-0.1-1.3,0.2-1.8,0.6c-0.5,0.5-0.7,1.2-0.5,1.8c4.8,25.4-1.6,52.9-17,73.6
			c-0.5,0.7-0.6,1.7-0.1,2.4c0.3,0.5,0.8,0.8,1.4,0.9c0.3,0,0.6,0,0.8,0c6.3-1.5,13.3-0.7,19.1,2.2c0.6,0.3,1.4,0.3,2-0.1
			c0.6-0.3,1-1,1.1-1.7c1.8-25.7,9.4-51.1,22.2-73.5c0.4-0.6,0.4-1.4,0.1-2C199.7,194.1,199.1,193.6,198.4,193.6z M173.8,267
			c-4.4-1.7-9.3-2.4-14.1-2.1c13.5-20.3,19.2-45.9,15.4-70l19.6,2.5C183.1,218.8,175.9,242.7,173.8,267z"/>
		<path fill="#414042" d="M256.7,226.2c-4.1-16.1-18.7-29.4-35.4-32.3c-1.7-0.3-3.4-0.5-5-0.6c-1.1,0-2,0.7-2.2,1.8
			c-4.4,27.2-13,53.4-25.6,77.9c-0.3,0.6-0.3,1.3,0,1.9c0.3,0.6,0.9,1,1.5,1.1c0,0,0.1,0,0.1,0c18,2.4,35.3,3.8,49.4-5
			C253.9,262.2,261.1,243.3,256.7,226.2z M237.3,267.5c-12.2,7.6-27.5,6.8-43.7,4.7c11.8-23.6,19.9-48.6,24.3-74.6
			c16.1,1.6,30.7,14.2,34.7,29.6C256.5,242.4,249.9,259.7,237.3,267.5z"/>
		<path fill="#414042" d="M223.2,206c-0.6-0.2-1.3-0.2-1.9,0.2c-0.6,0.4-0.9,1-1,1.7c-1.1,20.8-7.7,41-19.1,58.4
			c-0.4,0.6-0.5,1.4-0.1,2.1c0.3,0.6,0.9,1,1.5,1.1c0.1,0,0.1,0,0.2,0c11.9,0.9,22.9-1.8,31-7.4c9.7-6.8,15.1-18,13.8-28.6
			C245.8,219.8,233.8,210.3,223.2,206z M231.4,258.6c-6.5,4.6-15.2,7-24.7,6.9c10-16.5,16.1-35.1,17.6-54.4
			c8.8,4.2,17.8,12.1,19.1,22.9C244.6,242.9,239.7,252.8,231.4,258.6z"/>
		<path fill="#414042" d="M289.1,217.3c7.1,1.2,13.6,4,17,7.1c0.3,0.3,0.8,0.4,1.1,0.5c1.2,0.2,2.3-0.5,2.5-1.7
			c0.1-0.4,0-0.7-0.1-1.1c-0.2-2.7-1.1-4.8-1.9-6.6c-1.1-2.5-1.8-4.4-0.8-7c0.2-0.6,0.2-1.3-0.2-1.9c-0.4-0.6-1-0.9-1.6-1
			c-14.2-0.9-24.1-2.6-33.1-5.8c-0.6-0.2-1.3-0.1-1.9,0.2c-0.6,0.4-0.9,1-0.9,1.6c-1.5,26.6-8.2,53.4-19.5,77.5
			c-0.3,0.7-0.3,1.4,0.1,2c0.3,0.5,0.8,0.8,1.4,0.9c0.1,0,0.3,0,0.4,0c14.6-0.3,29.3,1.3,43.4,4.9c0.5,0.1,1.1,0,1.6-0.2
			c0.5-0.3,0.8-0.8,1-1.3l4-17.2c0.2-0.8-0.1-1.6-0.7-2.1c-0.6-0.5-1.5-0.6-2.2-0.3c-8.6,3.9-18.6,4.9-27.9,2.8
			c-0.9-8.1,0.3-12.9,3.8-15c1.5-1,3.6-1.4,6.4-1.4c6,0.1,12.1,2.1,16.9,5.7c0.3,0.2,0.6,0.3,0.9,0.4c1.2,0.2,2.3-0.5,2.5-1.7
			c0-0.3,0-0.5,0-0.8l1.3-15.1c0.1-0.7-0.2-1.3-0.7-1.8c-0.5-0.4-1.2-0.6-1.8-0.5c-4.1,0.9-8.4,1.8-12.5,1.3
			c-4.1-0.5-7.7-2.6-9.2-5.6c-1.7-3.3-0.3-11.1,1.9-17.8C282.9,216.5,285.9,216.7,289.1,217.3z M274.7,236.4
			c2.2,4.2,6.9,7.1,12.5,7.8c3.8,0.4,7.6-0.1,11.1-0.8l-0.8,9.4c-4.9-2.8-10.6-4.4-16.3-4.5c-3.6,0-6.5,0.6-8.7,2
			c-6.9,4.3-6.5,13.8-5.5,20.6c0.1,0.8,0.7,1.5,1.6,1.7c9.2,2.4,19.2,2,28.2-1.2l-2.6,11.2c-12.8-3.1-26-4.6-39.2-4.6
			c10.3-23,16.6-48.2,18.3-73.3c8.2,2.6,17.2,4.1,29.1,5c-0.4,2.9,0.6,5.3,1.5,7.5c0.1,0.3,0.2,0.6,0.3,0.8c-3.9-2.2-9-3.9-14.4-4.8
			c-4.2-0.7-8.1-0.9-11.3-0.5c-0.8,0.1-1.5,0.6-1.7,1.4C275.5,217.7,271.5,230.1,274.7,236.4z"/>
		<path fill="#414042" d="M352.5,262.5l-0.3-10.7c-0.9-27.8-0.5-34.9-0.2-36.5c0.3-0.4,0.4-1,0.3-1.5c-0.2-1.1-1.3-1.9-2.4-1.7
			c-4,0.7-8.2,0.3-12.1-1.1c-1-0.4-2.1,0.1-2.6,1c-12.1,23.3-22.9,47.6-32.2,72.1c-0.2,0.6-0.2,1.2,0.1,1.7c0.3,0.5,0.8,0.9,1.3,1.1
			l6.8,1.7c0,0,0.1,0,0.2,0c2.7,0.5,5.4-2,18.1-26.3c0.5-0.9,0.9-1.6,1.2-2.3c1.9,0.8,4,1.4,6,1.7c-0.1,3.1-0.6,10.2-1,15.2
			c-0.6,7.7-0.8,11.1-0.8,12c0,0.6,0.3,1.2,0.8,1.5c0.5,0.4,1.1,0.5,1.7,0.4c5.2-1.1,8-1,13-0.4c0.6,0.1,1.2-0.1,1.6-0.5
			c0.4-0.4,0.7-1,0.7-1.6C353,279.8,352.7,271.1,352.5,262.5z M312,286.5l0.2-2.1c0,0,0.1,0,0.1,0L312,286.5z M339.5,286.3
			c0.1-2.3,0.4-5.8,0.6-9c1.4-18.7,1.4-19-0.8-19.4c0,0-0.1,0-0.1,0c-2.9-0.3-5.7-1.2-8.3-2.4c-1-0.5-2.2-0.1-2.8,0.8
			c-0.4,0.7-1.2,2.2-2.2,4.1c-2.8,5.4-11.2,21.5-14.1,24l-3.9-1c8.8-23.1,19-45.9,30.3-67.9c3.1,0.9,6.3,1.2,9.5,1
			c-0.4,4.7-0.3,14.5,0.3,35.4l0.3,10.7c0.2,7.8,0.4,15.6,0.5,23.4C345.6,285.7,343,285.7,339.5,286.3z"/>
		<path fill="#414042" d="M342,225.6c-0.1-0.9-0.8-1.7-1.8-1.8c-0.9-0.1-1.9,0.4-2.2,1.3l-9.5,22.2c-0.5,1.1,0,2.3,1.1,2.8
			c2.9,1.3,6,2.2,9.1,2.7c1.3,0.2,2.7,0.4,4.1,0.5c0.6,0,1.2-0.2,1.7-0.6c0.4-0.5,0.6-1.1,0.6-1.7L342,225.6z M333.2,246.9l5.5-13
			l1.8,14.9C338.1,248.4,335.6,247.8,333.2,246.9z"/>
	</g>
	<path display="inline" fill="#414042" d="M407.5,260.5c-2.2-11.2-10.4-20.7-20.7-25.5c-1.7-1.8-3.6-3.4-5.6-4.7
		c5.3-3.5,9.6-8.2,12.5-13.6c4.4-8.4,5-18.4,1.7-26.8c-2.4-6.1-6.8-11.7-13.9-17.6c-3.5-2.9-7.1-5.4-10.6-7.4
		c-0.2-0.2-0.5-0.4-0.7-0.6c-10-8.3-20.1-12.9-30.1-13.8c-6.5-0.6-12.1,0.8-17.3,3.2c-1.1-5.4-3.6-10.7-7.4-15
		c-3.4-3.8-7.5-6.8-12.4-9.2c-7.7-8-19.6-12.6-32.8-12.9c-13-0.2-25.1,3.6-34.2,11c-7.2,5.9-12.2,13.9-14.1,22.5
		c-2.7-2.2-5.5-4.1-8.6-5.6c-8.2-7.8-18.3-12.2-30.4-13.1c-15.8-1.2-31.8,5.7-40.6,17.5c-8.8,11.8-10,28.4-3.3,40.6
		c-11.6-1.2-23.1,2.3-31.3,9.6c-14.1,12.5-16.1,36.1-0.9,48.8c2.8,2.8,5.9,5.4,9.1,7.7c-8.6,5.8-14.6,15.7-15.1,26.1
		c-0.6,13.4,8,26.8,20.4,31.9c3.2,3.5,7.2,6.4,11.6,8.2c6.9,2.8,14.7,2.9,21.9,0.7c-2.1,12.4-6.5,24.4-12.6,35.5
		c-2.9,5.2-6,11.2-10.1,15.6c-3,3.2-11.9,11.4-9.5,15.9c0.7,1.2,1.5,2.2,2.6,3c0.1,0.1,0.1,0.2,0.2,0.3c0.1,0.1,0.3,0.1,0.4,0.2
		c6.7,4.5,19.3,2.8,25.8,1.7c12.4-2.1,24.3-7,34.5-14.2c12.6-8.9,22.6-21.2,28.8-35.3c3.4,4.1,7.8,7.5,12.9,9.7
		c3.4,3.6,7.6,6.5,12.3,8.5c2.5,1,5.1,1.7,7.7,2.2c10.1,1.8,21.1-0.3,30.3-6c10.6-6.5,15-13.7,17.7-23.8c1.5,1,3.1,1.8,4.6,2.6
		c6.6,6.7,15.7,11.1,25.2,11.5c12.9,0.7,25.9-5.8,33.1-16.4c5-7.3,7-16.3,6.2-25c0.2-0.4,0.3-0.8,0.2-1.2l-0.6-2.4
		c-0.3-1.7-0.8-3.4-1.3-5c5.6,3.5,13.2,3.7,19.3,1.9C399.4,296.7,410.9,277.9,407.5,260.5z M322.9,165.8c5.6-3.7,12.1-5.9,18.7-6.6
		c-7.2,1.6-13.3,5.4-19.6,9.7C322.5,167.9,322.7,166.9,322.9,165.8z M339.9,153.7c3.5,0.3,6.9,1.1,10.4,2.4
		c-9.3-0.9-18.8,1.2-26.8,5.8c0.1-1.6,0.1-3.3-0.1-4.9C328.3,154.6,333.7,153.1,339.9,153.7z M238,130.1
		c8.4-6.8,19.9-10.5,32.1-10.2c8.9,0.2,17.1,2.4,23.7,6.5c-3.9-1-8-1.5-12.3-1.6c-13-0.2-25.1,3.6-34.2,11
		c-8.3,6.7-13.7,16.5-14.8,26.4c-0.8-1.3-1.7-2.5-2.6-3.7c1.5-8.4,5.8-16.3,11.9-22.2c6.2-6,14.3-9.9,22.9-11
		c0.9-0.1,1.5-0.9,1.3-1.8c-0.1-0.9-0.9-1.5-1.8-1.3c-9.2,1.2-17.9,5.4-24.6,11.8c-6,5.8-10.3,13.3-12.3,21.4c-0.9-1-1.8-2-2.8-2.9
		C226.1,144,230.9,135.9,238,130.1z M144.9,150.8c8.2-11,23.1-17.4,37.9-16.3c7.8,0.6,14.7,2.7,20.8,6.4c-2.9-0.8-6-1.2-9.2-1.5
		c-15.8-1.2-31.8,5.7-40.6,17.5c-7.9,10.7-9.7,25.2-5.1,36.9c-3-3.1-4.5-8-4.8-12.3c-1.2-14,5.3-28.5,16.6-37
		c0.7-0.5,0.8-1.5,0.3-2.2c-0.5-0.7-1.5-0.8-2.2-0.3c-12.1,9.1-19.1,24.7-17.8,39.7c0.1,1.3,0.4,3.8,1.3,6.6
		C135.6,177.2,136.7,161.8,144.9,150.8z M100.1,232.2c-2.9-10.6,1-23,9.7-30.8c8.1-7.2,20.3-10.4,31.8-8.4c0.1,0,0.2,0.1,0.2,0
		c0.6,0.1,1.2-0.2,1.6-0.7c0.1-0.1,0-0.2,0.1-0.3c1,2,2.5,3.9,4.4,5.3c-10.8-0.5-21.2,3-28.9,9.7c-9.6,8.6-13.9,22.2-10.6,33.9
		c0.5,1.8,1.2,3.5,2,5.2c-5.3-6.7-7.4-15.8-5.4-24.1c2-8.7,8.4-16.2,16.6-19.7c0.8-0.3,1.2-1.3,0.8-2.1c-0.3-0.8-1.3-1.2-2.1-0.8
		c-9.1,3.9-16.1,12.3-18.4,21.9c-1.3,5.6-0.9,11.5,0.8,17C101.6,236.5,100.7,234.4,100.1,232.2z M104,281.9
		c0.5-9.9,6.4-19.3,14.8-24.4c3.2,2,6.5,3.8,9.9,5.2c-9.4,5.7-16,16.1-16.5,27.1c-0.1,3.5,0.3,6.9,1.3,10.2c-2.2-4.2-3.3-9-3.1-13.8
		c0.3-6.9,3.2-13.7,8-18.6c0.6-0.6,0.6-1.6,0-2.2c-0.6-0.6-1.6-0.6-2.2,0c-5.4,5.5-8.6,13-8.9,20.7c-0.2,5.6,1.2,11.3,3.9,16.3
		C106.5,296.7,103.7,289.3,104,281.9z M116.8,307.6C116.8,307.6,116.8,307.6,116.8,307.6C116.8,307.6,116.8,307.6,116.8,307.6
		C116.8,307.6,116.8,307.6,116.8,307.6z M135.2,374.6c4.1-5.3,7.6-11.1,10.7-17c5.9-11.3,10.2-23.5,12.1-36.1c1.4-0.6,2.7-1.2,3.9-2
		c-1.4,11.6-5.6,23.8-12.7,36.4c-6.7,11.9-15.1,22.9-23.3,33.6c-0.7-0.5-1.2-1-1.8-1.4C127.8,383.5,131.7,379.1,135.2,374.6z
		 M132.7,392.1c-1.3,0-2.7-0.5-4-1.1c8.2-10.7,16.6-21.7,23.3-33.7c7.8-13.9,12.3-27.4,13.3-40.1c0.7-0.5,1.3-1,2-1.6
		c0,25.4-11.2,46.7-24.9,67.2c0.6,0.8-5,7.3-6.2,8.2C135.2,391.9,133.9,392.2,132.7,392.1z M216.2,341.8c0.2-0.4,0.4-0.9,0.5-1.4
		l1.8-3c0.7,3.8,2.2,7.5,4.2,10.8C220.3,346.4,218.1,344.3,216.2,341.8z M381.6,298.7c-6.5,1.9-15,1.4-19.6-3.9
		c-0.2-0.2-0.5-0.5-0.7-0.8c-0.5-0.6-1.3-0.8-2-0.5c-0.4,0.2-0.6,0.5-0.8,0.8c-0.1,0.3-0.2,0.7-0.1,1l0.4,1.5c-0.1,0.3-0.1,0.7,0,1
		c0.3,0.7,0.5,1.4,0.8,2.2l1.6,5.8c1.6,8.9-0.3,18.4-5.3,25.8c-6.7,9.8-18.6,15.7-30.4,15.1c-6-0.3-11.9-2.3-17-5.6
		c-2.4-1.5-4.5-3.3-6.5-5.4c-2-2.1-3.8-4.5-5.2-7.1c-0.3-0.6-0.9-0.9-1.6-0.8c-0.7,0.1-1.2,0.6-1.3,1.3c-0.1,0.5-0.2,0.9-0.3,1.4
		c-0.2,1.2-0.5,2.3-0.8,3.4c-2.6,10.1-6.5,16.8-16.6,23.1c-10.8,6.6-24.3,8-35.2,3.5c-2-0.8-4-1.9-5.7-3.1c-2.2-1.4-4.1-3.1-5.9-5
		c-2.4-2.6-4.5-5.6-5.9-8.9c-1.2-2.7-1.1-8.8-2.5-10.9c-4.7-6.3-8.6,10.3-9.8,12.9c-2,4.3-4.4,8.4-7.1,12.3
		c-5.4,7.8-12.1,14.7-19.9,20.2c-13.5,9.5-29.8,14.7-46.3,14.8c2.1-2.2,4.1-4.5,6-6.8c1-1.3,2-2.6,3-4c15.5-20.9,24.5-47,23.4-70.1
		c0-0.6-0.4-1.2-1-1.4c-0.6-0.2-1.3,0-1.7,0.4c-2.5,2.9-5.7,5.2-9.1,6.9c-1.1,0.5-2.2,1-3.3,1.3c-6.8,2.4-14.5,2.5-21.2-0.2
		c-2.1-0.9-4.1-2-6-3.3c-1.8-1.3-3.5-2.9-5-4.6c-5.1-5.8-8-13.5-7.7-21.1c0.6-12.3,9.5-23.8,21.2-27.3c0.7-0.3,1.2-1,1.1-1.8
		c-0.1-0.8-0.8-1.3-1.6-1.3c-4.7,0.1-9.4-1.4-13.3-4c-2.3-1.5-4.4-3.3-6.1-5.5c-2.4-2.8-4.2-6.2-5.1-9.8c-2.9-10.6,1-23,9.7-30.8
		c8.1-7.2,20.3-10.4,31.8-8.4c0.1,0,0.2,0.1,0.2,0c0.6,0.1,1.2-0.2,1.6-0.7c0.4-0.5,0.3-1.2,0-1.8c-7.9-11.3-7.3-28.1,1.5-39.8
		c8.2-11,23.1-17.4,37.9-16.3c6.4,0.5,12.2,2,17.5,4.6c3.3,1.6,6.3,3.6,9.1,6c0.3,0.2,0.5,0.4,0.7,0.6c1,0.8,2,1.8,2.9,2.8
		c1.9,2.1,3.9,4.3,5.4,6.7c0.9,1.5,2.9,8.2,5.8,6.4c0.9-0.6,0.5-8.9,0.8-10.3c1.7-8.3,6.6-15.9,13.2-21.3
		c8.4-6.8,19.9-10.5,32.1-10.2c7.2,0.1,14,1.7,19.8,4.4c2.4,1.1,4.7,2.4,6.8,4c1.9,1.4,3.6,2.9,5.1,4.6c3.7,4.1,6,9.2,6.9,14.4
		c0.2,1.1,0.3,2.3,0.4,3.4c0.1,2-0.1,4-0.4,5.9c0,0.2-0.1,0.3-0.1,0.5c-0.5,2.8-1.5,5.4-3,7.7c-0.4,0.6-0.3,1.4,0.2,1.9
		c0.5,0.5,1.3,0.6,2,0.2c1-0.7,2.1-1.4,3.2-2.1c9-6.1,17.4-11.9,28.9-10.9c5.9,0.5,11.9,2.4,17.8,5.8c3.5,1.9,7,4.4,10.5,7.3
		c0.6,0.4,1.1,0.9,1.6,1.4c5.7,5,9.4,9.8,11.4,14.9c3,7.6,2.4,16.6-1.6,24.2c-2.8,5.3-7.2,10-12.6,13.2c-1.1,0.7-2.2,1.3-3.3,1.8
		c-0.9,0.4-1.8,0.8-2.7,1.2c-0.2,0.1-0.4,0.2-0.5,0.3c-1,0-2,0.1-3,0.1c-0.8,0.1-1.5,0.9-1.4,1.7c0.1,0.9,0.8,1.5,1.7,1.4
		c5.4-0.5,10.9,0.4,15.9,2.7c2.5,1.1,4.9,2.5,7.1,4.2c6.2,4.7,10.9,11.6,12.4,19.3C407.5,276.9,397,294.1,381.6,298.7z"/>
</g>
<path id="_x31_3" fill="#414042" d="M358.2,115c-5.3-6.3-12.2-12.6-20.7-10.5c-8.1,2-13,10.3-17.1,17.4c-0.4,0.7-0.3,1.3,0,1.8
	c-0.5-1-6.2,0.6-7.1,0.9c-2.5,0.9-4.4,2.3-6.3,4.2c-3.7,3.8-6.9,8.1-6.9,14c0,6.7-3.4,8.2-7.6,12.7c-4.5,4.8-9,9.7-13.4,14.6
	c-8.7,9.6-17.3,19.3-25.7,29.2c-16.8,19.6-33.2,39.6-49.2,60c-7.8,10-15.6,20-23.3,30.2c-9.1,12-16.7,24.4-22,39
	c-2.8,7.7-6.5,14.2-10.3,21.4c-7.7,14.8-15.1,29.7-22.1,44.9c-0.3,0.6-0.3,1.1-0.1,1.5c-0.3,0.6-0.6,1.2-0.8,1.7
	c-0.5,1.1,0.1,2.8,1.3,2.9c1.2,0.1,2.3-0.1,3.3-0.7v0h0c0.2-0.1,0.5-0.3,0.7-0.5c12.4-9.1,25.1-18,37.9-26.5c6.6-4.4,13.3-8.7,20-13
	c9.8-6.2,16.9-12.1,24.4-21.3c8.3-10.2,16.7-20.5,25-30.8c16.8-20.7,33.5-41.5,50.3-62.3c10.7-13.3,21.5-26.6,32.3-39.9
	c5.5-6.7,10.9-13.5,16.4-20.2c1.1-1.3,2.6-4.2,4.1-5c1.4-0.8,1.7-0.2,3.2-0.4c8.7-1.2,13.1-11.6,13-20.4
	c6.4-5.1,12.8-11.2,12.8-20.5C370.4,129.9,363.7,121.5,358.2,115z M269.5,186.8c6.6-7.4,13.2-14.8,19.9-22.1
	c3.3-3.6,7.1-7.1,10.2-11c1.2-1.6,2.3-3.3,3.5-4.8c1-1.4,2.2-2.7,3.6-3.8c1.2-0.9,2.4-1.5,3.6-2.5c2.5-2.2,2.5-2.8,5.6-1.2
	c3.4,1.7,6.7,3.9,9.8,6.2C274.5,200.9,224.3,260,177.8,318.3c0.7-3.8,0.3-7.7-2.8-10.6c-0.6-0.6-1.3-1-2-1.3
	C203.6,265.2,235.7,225.1,269.5,186.8z M185.7,336.8c0.7-5.2,0.3-10.4-3.8-14c-0.6-0.5-1.2-0.8-1.8-1.2
	c46.7-58.6,97.2-118,148.6-171.6c0,0,0-0.1,0-0.1c3.1,2.4,6,5.1,8.5,8.1C285.1,214.8,233.6,275.5,185.7,336.8z M142.9,369.7
	c0.3,1.4,0.7,2.8,1.3,4.1c-0.6-0.2-1.3-0.1-1.8,0.7c-2.4,3.6-4.7,7.2-7.1,10.9C137.8,380.2,140.3,374.9,142.9,369.7z M142.5,386.4
	c-0.1-0.2-0.2-0.3-0.3-0.4c1.5-1.6,2.9-3.1,4.4-4.7c1.4-1.5-0.2-3.5-1.8-3.3c0.2-0.3,0.4-0.6,0.5-0.8c0.2-0.3,0.3-0.6,0.3-0.9
	c1.2,1.8,2.8,3.4,4.7,4.6C147.6,382.8,145,384.6,142.5,386.4z M181.1,349.7c3,2.3,6.4,3.9,9.9,4.4c-1.8,1.2-3.7,2.3-5.5,3.5
	c-0.1,0-0.2-0.1-0.3-0.1c-3.5-0.1-6.6-2.1-8.6-5.2c-1.4-2.2-4.5,0.1-3.1,2.3c1.8,2.9,4.4,4.8,7.3,5.9c-1.5,0.9-2.9,1.9-4.4,2.8
	c-0.2-0.3-0.6-0.6-1.1-0.6c-3-0.4-5.7-1.9-7.6-4.4c-1.5-2-4.7,0.2-3.1,2.3c2,2.7,4.7,4.6,7.7,5.6c-1.1,0.7-2.3,1.5-3.4,2.3
	c-0.3-0.3-0.7-0.5-1.2-0.5c-3-0.1-5.7-1.6-7.5-4.2c-1.4-2.1-4.6,0.1-3.1,2.3c1.9,2.8,4.5,4.6,7.4,5.5c-1.3,0.9-2.7,1.8-4,2.7
	c-0.1-0.3-0.3-0.6-0.7-0.9c-2-1.4-4-2.9-6-4.3c-2-1.5-3.7,2.2-1.7,3.6c1.7,1.2,3.4,2.4,5.1,3.7c-1.1,0.7-2.2,1.4-3.2,2.2
	c-0.1,0-0.1-0.1-0.2-0.1c-6.5-2.3-9.3-11.1-5.9-17.3c0.2-0.4,0.2-0.8,0.2-1.2c8.2-16,16.7-31.7,25.7-47.2c0.2,0.5,0.4,1,0.5,1.5
	c0.6,2.7-3.6,10.9-1.3,12.7c1.2,0.9,2.5-1.4,3.7-1.5c2.3-0.3,4.3,1.9,5.1,4.1c1.3,3.6-0.3,6.7,0,10.3c0.5,5.2,3.9,5,7,4
	c3.2,0.4,6,2.8,7.2,6.2c0,0.1,0.1,0.2,0.1,0.2c-4.5,0.6-8.8-0.4-12.5-3.3C181.6,345.1,179.1,348.2,181.1,349.7z M199.5,348.5
	c0.1,0.1,0.1,0.1,0.2,0.1c-0.1,0-0.1,0.1-0.2,0.1C199.5,348.6,199.6,348.6,199.5,348.5z M197.1,343.9C197,343.9,197,344,197.1,343.9
	c-0.2,0-0.2-0.1-0.3-0.1c0,0,0.1,0,0.1,0C197,343.8,197,343.9,197.1,343.9z M343.5,171.7c-46.2,56.4-93.7,116.2-140,172.9
	c-0.2-0.3-0.6-0.6-1-0.7c-0.7-1-1.5-1.9-2.4-2.6c18.6-22.8,37.2-45.7,55.8-68.5c1.6-2-1.3-4.7-2.9-2.7
	c-18.8,23.1-37.6,46.2-56.3,69.3c-2.6-0.9-5.5-1-8.1,0.2h0c47.7-61.1,99-121.6,151.1-178.2c0.4,0.6,0.8,1.3,1.2,2l-66.2,78.8
	c-1.6,1.9,1.2,4.7,2.9,2.7c21.7-25.8,43.4-51.7,65.1-77.5c0.5,1.4,0.9,2.8,1.2,4.3C343.6,171.6,343.5,171.7,343.5,171.7z
	 M352.3,168.5c-0.2-4.9-1.7-9.8-4.7-13.9c-1.5-2-4.6,0.2-3.1,2.3c3.8,5.2,5,11.5,3.3,17.6c-0.6-11.5-7.7-20.9-16.5-27.7
	c-4-3-8.7-6.8-13.7-9.3c8.5,2.3,16.2,7.2,22.4,14.5c1.6,1.9,4.1-1.1,2.5-3.1c-8.7-10.3-20.5-16.1-33.2-16.8
	c8.2-11.1,28.8,0.2,36.5,8.2C351.8,146.6,356,159.9,352.3,168.5z M361.8,150.4c-3.5-11.6-10.4-21.2-19.9-27.9
	c-2-1.4-3.7,2.2-1.7,3.6c9.1,6.5,15.5,16.1,18.6,27.3c-0.6,0.5-1.1,1-1.7,1.5c-1.1-6.5-4.2-12.9-8.8-17.7
	c-5.6-5.8-15.5-11.7-24.7-13.3c0.1-0.1,0.2-0.2,0.3-0.3c3-5.3,6.9-12.4,12.7-14.6c8.6-3.4,15.7,4.5,20.8,10.9
	c4.1,5.2,7.9,10.5,8.7,17.4C366.6,142.9,364.7,146.9,361.8,150.4z"/>
</svg>
